<?xml version="1.0" standalone="no"?>
<!DOCTYPE svg PUBLIC "-//W3C//DTD SVG 20010904//EN"
 "http://www.w3.org/TR/2001/REC-SVG-20010904/DTD/svg10.dtd">
<svg version="1.0" xmlns="http://www.w3.org/2000/svg"
 width="564.000000pt" height="1005.000000pt" viewBox="0 0 564.000000 1005.000000"
 preserveAspectRatio="xMidYMid meet">

<g transform="translate(0.000000,1005.000000) scale(0.100000,-0.100000)"
fill="#000000" stroke="none">
<path d="M1680 10012 c-15 -59 -30 -142 -30 -172 0 -45 33 -46 115 -5 39 20
80 35 90 34 42 -4 65 2 65 16 0 9 9 15 25 15 18 0 23 -4 19 -15 -4 -8 -12 -15
-18 -15 -21 0 -90 -37 -119 -64 -15 -14 -29 -26 -31 -26 -2 0 -20 -16 -41 -35
-21 -19 -50 -37 -65 -40 -15 -3 -38 -17 -50 -31 -13 -13 -32 -24 -42 -24 -10
0 -18 -4 -18 -10 0 -5 -8 -10 -17 -10 -35 0 -170 -110 -159 -129 3 -5 -5 -12
-19 -15 -14 -4 -25 -11 -25 -17 0 -6 6 -6 19 1 48 25 40 6 -9 -21 -117 -67
-229 -143 -219 -150 7 -4 -4 -18 -27 -35 -20 -16 -48 -39 -60 -50 -13 -12 -26
-19 -29 -16 -3 4 -3 -1 0 -11 5 -12 -1 -20 -19 -28 -14 -7 -26 -16 -26 -21 0
-4 -7 -8 -15 -8 -8 0 -15 -4 -15 -9 0 -9 -9 -21 -80 -105 -49 -58 -62 -83 -47
-90 7 -3 -1 -3 -16 1 -21 4 -28 2 -26 -8 2 -8 -11 -29 -29 -48 -18 -18 -35
-43 -38 -56 -3 -12 -17 -28 -30 -36 -14 -7 -32 -28 -40 -46 -9 -18 -34 -49
-56 -69 -26 -23 -37 -39 -30 -46 6 -6 2 -17 -12 -32 -95 -99 -180 -215 -158
-216 4 0 -1 -5 -11 -11 -9 -5 -17 -22 -17 -37 0 -16 -13 -40 -33 -62 -42 -45
-60 -83 -44 -99 6 -6 7 -14 3 -18 -4 -4 -11 -2 -15 5 -21 34 -77 -42 -69 -95
3 -22 0 -30 -10 -29 -16 1 -36 -57 -44 -128 -5 -39 -2 -48 14 -57 10 -5 18
-15 17 -22 -5 -38 3 -58 24 -66 15 -6 32 -28 46 -61 13 -31 30 -54 42 -57 22
-6 26 -43 4 -43 -8 0 -15 9 -15 20 0 13 -7 20 -19 20 -25 0 -38 -20 -21 -30 7
-4 9 -13 5 -19 -4 -8 -13 1 -25 23 -13 27 -16 45 -10 76 12 67 -6 63 -43 -11
-21 -41 -14 -71 27 -112 14 -15 26 -33 26 -42 0 -8 5 -15 10 -15 6 0 10 -7 10
-15 0 -8 4 -15 9 -15 12 0 22 -43 12 -53 -4 -4 -15 3 -24 17 -9 13 -33 41 -54
61 -29 28 -38 33 -45 21 -10 -17 0 -48 13 -40 5 3 14 -8 20 -23 6 -15 15 -36
20 -45 5 -10 9 -24 9 -33 0 -22 62 -88 70 -75 4 6 8 32 9 57 2 54 5 60 25 44
23 -19 28 -64 11 -97 -22 -43 -29 -92 -16 -120 9 -20 8 -26 -5 -31 -9 -3 -20
0 -25 8 -7 12 -11 12 -24 -2 -14 -14 -12 -17 25 -28 36 -10 39 -14 30 -31 -6
-11 -15 -20 -20 -20 -18 0 -10 -30 10 -42 22 -14 26 -48 8 -66 -9 -9 -9 -12 0
-12 7 0 12 -8 12 -17 0 -10 14 -26 30 -35 33 -19 39 -48 19 -92 -9 -20 -9 -29
1 -41 8 -9 10 -27 6 -49 -9 -48 7 -84 40 -88 34 -4 42 -24 15 -33 -31 -10 -9
-47 23 -39 14 3 27 -1 36 -11 17 -21 4 -32 -20 -17 -24 15 -30 15 -30 2 0 -5
25 -28 55 -51 47 -36 55 -46 61 -85 3 -25 14 -50 24 -57 22 -15 50 -80 50
-115 0 -15 13 -38 35 -59 19 -19 35 -40 35 -48 0 -8 6 -18 13 -22 8 -4 27 -30
43 -58 15 -27 41 -68 56 -89 15 -21 28 -49 28 -61 0 -27 42 -74 70 -78 25 -4
49 -35 50 -63 0 -12 7 -24 15 -28 9 -3 25 -21 36 -41 12 -19 25 -32 30 -29 6
3 26 -12 47 -34 94 -100 112 -132 72 -132 -16 0 -21 9 -27 42 -3 24 -8 38 -10
31 -5 -15 -81 25 -95 51 -6 10 -23 32 -39 47 -16 16 -29 36 -29 46 0 10 -16
29 -35 42 -59 40 -136 114 -152 146 -9 17 -32 53 -52 80 -20 28 -41 57 -46 66
-6 8 -28 43 -50 77 -22 34 -51 81 -65 103 -14 23 -46 64 -72 91 -29 31 -48 60
-48 74 0 12 -5 26 -10 29 -6 4 -23 34 -39 69 -15 34 -39 69 -53 78 -13 9 -39
46 -57 82 -31 64 -48 80 -55 54 -2 -7 -17 -58 -34 -113 -32 -104 -50 -194 -58
-280 -2 -27 -9 -72 -15 -100 -15 -75 -12 -300 6 -365 8 -30 15 -75 15 -100 0
-25 9 -85 19 -135 39 -191 60 -282 74 -321 28 -78 91 -219 104 -232 7 -7 13
-17 13 -22 0 -8 38 -70 58 -95 4 -5 18 -30 30 -55 12 -25 43 -67 69 -94 50
-50 205 -159 244 -171 13 -4 40 -20 62 -36 22 -16 44 -29 49 -29 5 0 25 -11
46 -24 58 -38 138 -36 172 4 12 15 23 16 60 10 25 -4 37 -8 28 -9 -9 0 -20
-10 -23 -21 -3 -11 -15 -20 -25 -20 -10 0 -22 -5 -25 -10 -9 -14 29 -12 43 2
10 10 15 10 22 -2 14 -22 13 -25 -16 -26 -35 -2 -38 -8 -26 -43 9 -26 8 -31
-13 -45 -35 -23 -38 -20 -32 24 4 35 2 43 -18 56 -29 19 -86 9 -59 -10 15 -11
15 -13 0 -25 -9 -8 -14 -22 -11 -31 4 -12 -1 -19 -16 -23 -20 -5 -21 -3 -16
34 5 37 4 39 -16 33 -12 -3 -40 -21 -62 -39 -22 -17 -60 -41 -85 -52 -25 -11
-51 -27 -59 -36 -12 -15 -11 -17 7 -17 12 0 24 -4 27 -10 3 -6 1 -10 -4 -10
-6 0 -11 -7 -11 -15 0 -8 -7 -15 -15 -15 -8 0 -15 9 -15 19 0 11 -4 22 -9 26
-15 8 -62 -16 -103 -54 -47 -43 -57 -70 -32 -89 16 -12 16 -14 2 -9 -9 3 -19
1 -21 -6 -3 -9 -10 -9 -28 2 -21 13 -25 11 -51 -19 -38 -47 -43 -80 -19 -131
25 -51 26 -59 6 -59 -9 0 -15 9 -15 24 0 14 -5 28 -11 31 -6 4 -8 13 -5 21 3
7 1 16 -3 18 -14 9 -42 -30 -44 -60 -1 -18 -10 -32 -23 -38 -41 -18 -78 -146
-49 -169 6 -4 0 -10 -13 -13 -12 -4 -22 -13 -22 -21 0 -12 -3 -13 -14 -4 -10
9 -17 6 -30 -13 -19 -31 -20 -50 -3 -65 10 -8 17 -7 25 1 15 15 29 1 33 -33 5
-34 -24 -63 -56 -56 -14 2 -25 0 -25 -5 0 -6 -9 -21 -20 -35 -27 -35 -25 -43
10 -43 29 0 30 -2 30 -43 0 -24 7 -53 17 -66 12 -18 13 -22 2 -15 -27 17 -49
15 -49 -5 0 -23 -16 -36 -25 -21 -11 18 -25 10 -25 -15 0 -14 -7 -28 -15 -31
-8 -4 -15 -15 -15 -25 0 -23 32 -26 49 -5 7 8 21 12 31 9 20 -5 28 -25 28 -73
l1 -25 -18 22 c-10 11 -22 18 -27 15 -9 -7 -10 -10 -12 -59 l-2 -26 -25 29
c-24 27 -25 28 -25 7 0 -12 4 -24 8 -27 5 -3 7 -19 4 -36 -3 -23 -1 -30 13
-30 9 0 24 8 33 18 10 10 30 24 46 31 27 11 28 11 22 -11 -3 -13 -6 -35 -6
-50 0 -31 -17 -36 -35 -12 -11 15 -12 15 -18 -5 -3 -11 -1 -21 4 -21 4 0 6 -7
3 -15 -4 -10 -13 -13 -27 -9 -17 5 -19 3 -13 -20 4 -15 2 -26 -4 -26 -5 0 -10
-9 -10 -20 0 -30 -16 -24 -34 12 -18 35 -21 58 -7 58 11 0 21 38 14 56 -9 23
-21 16 -32 -19 -11 -35 -12 -99 -2 -107 11 -8 41 -76 41 -92 0 -8 6 -20 13
-27 10 -10 9 -11 -5 -6 -13 5 -20 -5 -33 -52 -10 -32 -21 -66 -27 -76 -5 -10
-6 -27 -3 -38 5 -14 2 -19 -14 -19 -18 0 -20 -5 -16 -61 4 -59 15 -96 15 -50
0 12 5 32 12 44 7 12 14 33 16 47 2 14 13 36 26 50 12 14 23 36 24 49 0 13 10
32 21 42 20 19 21 19 27 -6 7 -29 20 -33 28 -7 3 9 15 23 26 30 17 10 20 10
20 -2 0 -8 3 -22 7 -31 5 -14 2 -16 -15 -10 -13 4 -22 2 -22 -4 0 -6 4 -11 9
-11 5 0 11 -7 15 -15 4 -13 2 -13 -14 -5 -28 15 -31 13 -24 -15 5 -22 3 -25
-20 -25 -19 0 -26 -5 -26 -20 0 -11 -6 -20 -14 -20 -7 0 -19 -15 -26 -32 -6
-18 -15 -40 -19 -48 -5 -8 -7 -24 -5 -34 1 -11 -4 -24 -12 -30 -10 -8 -12 -24
-8 -64 4 -28 10 -52 13 -52 7 0 34 61 32 73 0 4 4 7 10 7 6 0 8 8 5 18 -4 12
3 27 19 42 14 13 25 29 25 37 0 7 5 13 11 13 5 0 8 4 5 8 -6 10 29 42 45 42 6
0 8 9 3 22 -6 19 -4 21 7 11 21 -17 40 -2 60 49 16 38 19 41 25 21 3 -13 10
-23 15 -23 16 0 24 5 22 12 -2 4 4 5 12 2 8 -4 15 -10 15 -16 0 -5 -5 -6 -10
-3 -10 6 -14 -7 -11 -31 1 -7 -11 -10 -28 -8 -22 3 -29 0 -25 -10 4 -10 -2
-12 -20 -9 -28 6 -37 -14 -11 -23 22 -9 18 -23 -5 -17 -13 4 -20 0 -20 -9 0
-8 -9 -23 -20 -33 -11 -10 -20 -13 -20 -7 0 28 -17 9 -29 -33 -7 -24 -19 -49
-26 -55 -7 -5 -11 -26 -9 -44 1 -22 -3 -36 -12 -40 -7 -3 -12 -11 -10 -18 1
-7 1 -10 -1 -5 -3 4 -11 7 -19 7 -11 0 -10 -7 5 -32 19 -35 39 -42 51 -18 27
53 32 70 27 84 -5 11 0 16 14 16 16 0 20 5 16 20 -3 11 -1 18 3 15 5 -3 11 -1
15 5 4 6 11 7 17 4 7 -4 8 -2 4 4 -8 14 7 45 20 40 5 -1 10 7 12 20 2 12 8 20
13 17 5 -4 10 4 10 17 1 17 3 18 6 5 2 -9 9 -17 15 -17 7 0 6 -5 -1 -14 -8
-10 -9 -16 -1 -21 16 -10 12 -28 -5 -21 -10 3 -15 -1 -15 -14 0 -10 -5 -22
-10 -25 -6 -3 -10 -16 -10 -28 -1 -20 -2 -21 -14 -4 -19 25 -29 21 -22 -9 6
-22 4 -25 -12 -20 -17 6 -20 0 -24 -38 -3 -24 -15 -57 -27 -72 -16 -20 -20
-37 -17 -69 3 -33 0 -45 -15 -55 -17 -13 -17 -15 7 -37 14 -13 30 -23 35 -23
6 0 8 -12 5 -27 -3 -16 -7 -52 -8 -81 -3 -60 15 -83 42 -56 13 14 13 17 -2 28
-21 16 -24 28 -5 20 8 -3 20 2 27 10 10 13 9 21 -6 43 -17 27 -17 28 1 13 37
-30 79 -75 81 -86 3 -21 -31 -8 -41 14 -11 24 -20 28 -30 12 -3 -6 1 -18 10
-27 13 -13 14 -18 3 -25 -10 -7 -10 -11 3 -20 15 -11 15 -14 -2 -45 -10 -18
-14 -33 -9 -33 6 0 10 -7 10 -15 0 -8 -7 -15 -15 -15 -18 0 -20 -16 -4 -26 6
-3 7 -9 2 -13 -15 -11 -35 -65 -39 -107 -3 -31 1 -45 15 -58 21 -19 41 -14 41
9 0 7 6 15 14 18 16 6 19 64 4 73 -4 3 -8 10 -8 17 0 6 6 3 13 -8 20 -27 40
-9 35 31 -3 28 -1 34 15 34 10 0 25 7 33 15 14 13 14 15 0 15 -9 0 -16 7 -16
15 0 8 5 15 11 15 5 0 7 -5 3 -12 -4 -7 -3 -8 5 -4 6 4 9 12 5 17 -18 30 -8
94 16 97 25 3 37 16 33 33 -4 12 0 19 9 19 10 0 14 8 12 25 -1 14 3 31 10 38
7 7 11 19 9 27 -3 8 4 3 14 -12 18 -28 33 -36 33 -18 0 6 -4 10 -9 10 -14 0
-18 32 -8 62 12 38 35 35 45 -5 6 -23 5 -34 -4 -40 -7 -4 -11 -14 -8 -21 3 -8
-3 -19 -15 -25 -16 -9 -22 -8 -29 5 -7 12 -9 8 -9 -17 0 -69 -3 -85 -12 -69
-6 8 -7 18 -4 24 3 5 1 6 -5 2 -8 -5 -8 -15 -2 -32 9 -23 -1 -64 -16 -64 -3 0
-2 4 1 10 3 5 1 19 -6 31 -10 20 -12 21 -21 5 -5 -9 -14 -13 -20 -10 -7 4 -8
2 -4 -4 4 -6 14 -8 23 -5 11 4 14 3 9 -5 -4 -7 -1 -26 8 -43 15 -29 14 -30 -7
-24 -21 6 -22 6 -3 -9 18 -14 15 -21 -7 -17 -4 1 -5 -10 -1 -24 5 -20 2 -25
-12 -26 -11 0 -14 -3 -6 -6 14 -5 17 -43 3 -43 -5 0 -12 6 -14 13 -6 12 -11
-34 -8 -66 1 -9 -4 -17 -13 -17 -19 0 -21 -17 -4 -22 7 -3 8 -9 3 -19 -5 -8
-10 -18 -11 -24 -1 -5 -5 -26 -9 -45 -5 -28 -2 -39 13 -53 24 -22 35 -10 34
34 l-1 29 40 -20 c37 -19 56 -49 23 -36 -12 4 -14 1 -9 -14 4 -11 2 -20 -4
-20 -18 0 -17 -45 2 -85 l20 -40 -21 19 c-30 26 -52 16 -24 -12 26 -26 27 -32
7 -32 -20 0 -19 -14 1 -31 9 -7 14 -22 11 -36 -2 -13 -1 -23 4 -23 4 0 14 -3
23 -6 12 -5 14 2 11 41 -3 26 -7 51 -11 56 -3 5 6 13 20 19 14 5 26 17 26 25
0 9 5 13 11 10 6 -4 5 3 -3 14 -11 18 -11 23 2 31 8 5 18 6 23 3 5 -3 4 5 -3
17 -12 23 -4 43 9 21 5 -7 7 11 5 41 -2 29 -1 47 2 41 3 -7 12 -13 20 -13 9 0
12 -5 8 -12 -5 -7 -3 -8 6 -3 10 6 12 1 8 -18 -3 -15 -2 -24 3 -22 4 3 10 1
13 -4 4 -5 -3 -13 -14 -16 -16 -5 -18 -10 -10 -20 8 -10 6 -13 -7 -11 -14 1
-17 -5 -15 -24 2 -20 1 -22 -7 -10 -7 9 -11 10 -11 3 0 -6 5 -15 11 -18 5 -4
8 -12 6 -18 -3 -7 5 -22 16 -35 24 -26 12 -29 -22 -6 -19 14 -25 14 -32 3 -5
-8 -5 -23 -2 -34 4 -11 7 -30 8 -42 0 -15 5 -21 15 -19 8 3 30 7 48 11 32 7
41 29 17 48 -5 4 2 5 17 3 15 -3 31 0 34 6 4 6 3 8 -3 5 -6 -4 -19 0 -29 8
-18 14 -17 15 19 19 6 0 23 -8 37 -18 14 -10 17 -16 8 -13 -13 5 -16 0 -15
-21 2 -20 -4 -30 -23 -40 -14 -7 -18 -10 -9 -8 12 3 16 -3 17 -25 1 -25 -3
-29 -25 -29 -21 0 -24 -2 -13 -15 10 -12 10 -18 0 -30 -6 -8 -9 -23 -6 -35 3
-11 8 -29 12 -39 3 -13 -3 -28 -17 -42 -18 -18 -20 -25 -11 -40 9 -14 8 -21
-3 -33 -8 -8 -15 -19 -15 -24 0 -6 -13 -13 -30 -17 -27 -6 -29 -9 -18 -28 25
-48 68 -62 68 -22 0 14 5 25 11 25 22 0 69 42 69 61 0 10 -4 19 -8 19 -14 0
-10 34 6 46 8 6 13 17 10 25 -3 8 5 19 16 24 15 8 21 20 21 43 -1 18 3 32 7
32 5 0 13 12 18 26 9 23 12 25 28 13 29 -23 43 -38 43 -46 1 -4 5 -7 10 -5 6
1 5 -7 -1 -18 -6 -12 -7 -20 -1 -20 5 0 13 -9 16 -20 3 -11 17 -23 31 -26 16
-4 32 -21 43 -45 18 -37 18 -38 0 -44 -18 -6 -21 -28 -6 -52 10 -16 -12 -28
-26 -14 -20 20 -28 11 -11 -14 11 -16 14 -36 11 -54 -5 -25 -2 -31 21 -40 l27
-9 -32 -1 c-18 -1 -36 -8 -41 -17 -7 -13 -13 -12 -40 11 -33 28 -41 50 -19 58
9 3 9 8 -2 21 -10 12 -11 20 -4 27 11 11 6 49 -6 49 -16 -1 -33 -19 -27 -29 4
-6 2 -9 -6 -6 -19 8 -62 -40 -55 -59 5 -12 0 -16 -18 -16 -14 0 -25 -4 -25 -9
0 -5 -3 -16 -6 -24 -3 -9 9 -29 31 -51 39 -39 80 -47 100 -20 10 14 14 15 33
3 24 -15 30 -49 10 -49 -7 0 -20 -4 -28 -10 -24 -15 45 -74 87 -74 25 0 33 -5
35 -20 2 -13 22 -31 53 -48 61 -33 79 -35 70 -8 -5 16 -2 20 14 20 24 0 27 10
9 28 -9 9 -9 17 1 36 7 13 14 39 16 57 1 18 8 35 14 37 9 3 9 7 0 18 -10 12
-8 16 10 21 14 4 20 11 16 20 -3 11 -1 13 10 9 8 -3 23 -9 32 -12 15 -5 16 -4
3 5 -10 7 -11 11 -2 11 6 0 12 5 12 11 0 5 -5 7 -12 3 -8 -5 -9 -2 -5 10 4 10
7 20 7 23 0 2 7 -3 16 -12 11 -10 13 -19 6 -28 -5 -7 -6 -21 -1 -32 13 -33 10
-38 -18 -32 -24 4 -26 4 -10 -8 20 -14 23 -35 5 -35 -7 0 -5 -5 4 -11 24 -14
23 -29 -2 -29 -29 0 -46 -47 -25 -70 18 -20 11 -30 -21 -30 -17 0 -21 -4 -17
-21 5 -18 2 -19 -23 -13 l-29 7 25 -25 c14 -14 48 -37 77 -52 29 -14 74 -39
100 -56 51 -32 82 -37 113 -18 17 11 22 10 30 -2 6 -9 6 -16 0 -18 -6 -2 -10
-10 -10 -17 0 -13 96 -65 122 -65 9 0 21 -7 28 -15 27 -32 170 -70 170 -45 0
6 -6 10 -14 10 -8 0 -21 8 -28 19 -7 10 -36 28 -65 41 -62 26 -83 47 -59 56
12 5 13 10 5 27 -9 16 -9 19 4 14 20 -8 31 21 15 40 -10 13 -8 14 17 12 17 -2
36 0 43 4 11 8 17 -4 13 -27 -1 -5 4 -13 11 -17 10 -7 9 -9 -4 -9 -10 0 -18 5
-18 10 0 6 -9 10 -20 10 -24 0 -25 -8 -4 -38 14 -20 14 -23 0 -28 -25 -10 1
-38 63 -70 62 -32 76 -45 58 -56 -6 -4 -9 -8 -7 -10 50 -32 146 -40 156 -13 8
19 34 20 34 0 0 -13 220 -15 1845 -15 l1845 0 0 5025 0 5025 -1122 -1 c-751
-1 -1111 -4 -1086 -11 35 -9 83 -48 60 -48 -6 0 -13 4 -16 9 -3 5 -21 5 -41 1
-31 -7 -38 -5 -59 21 l-24 29 -831 0 -830 0 -11 -38z m718 -7 c2 -23 0 -24
-23 -13 -31 14 -33 38 -2 38 17 0 23 -6 25 -25z m852 15 c0 -5 -4 -10 -10 -10
-5 0 -10 5 -10 10 0 6 5 10 10 10 6 0 10 -4 10 -10z m-75 -10 c3 -5 -1 -10 -9
-10 -9 0 -16 5 -16 10 0 6 4 10 9 10 6 0 13 -4 16 -10z m-114 -24 c30 -12 61
-21 69 -19 8 2 5 -2 -8 -8 -16 -9 -28 -9 -45 -1 -35 17 -75 23 -82 12 -10 -17
-31 -11 -32 9 -1 13 6 21 20 24 12 2 23 5 23 6 1 0 26 -10 55 -23z m-851 4 c0
-9 -22 -15 -43 -11 -5 1 -6 -3 -3 -8 4 -5 2 -12 -3 -15 -19 -12 -24 17 -6 31
22 15 55 17 55 3z m1154 -10 c6 -6 -5 -8 -29 -6 -22 2 -41 9 -43 16 -4 10 4
11 29 6 18 -3 38 -11 43 -16z m189 13 c-7 -2 -19 -2 -25 0 -7 3 -2 5 12 5 14
0 19 -2 13 -5z m-288 -13 c-3 -5 -12 -10 -20 -10 -8 0 -17 5 -20 10 -4 6 5 10
20 10 15 0 24 -4 20 -10z m300 -20 c17 -19 17 -19 -9 -7 -14 7 -26 15 -26 20
0 13 17 7 35 -13z m105 -49 c25 -21 25 -21 -13 0 -21 12 -42 29 -47 39 -17 31
-11 34 13 7 12 -14 33 -35 47 -46z m-1402 37 c3 -15 0 -16 -27 -7 -17 6 -28
15 -25 21 9 15 48 5 52 -14z m177 12 c-3 -5 -13 -10 -21 -10 -8 0 -14 5 -14
10 0 6 9 10 21 10 11 0 17 -4 14 -10z m467 -22 c-9 -9 -15 -9 -24 1 -9 10 -9
12 -1 7 6 -3 15 -1 18 5 4 5 10 8 13 4 3 -3 0 -11 -6 -17z m-806 -37 c-10 -11
-24 -17 -32 -14 -29 11 -11 31 30 32 18 1 18 0 2 -18z m298 -15 c-3 -8 -12
-17 -20 -20 -11 -4 -12 -2 -1 14 14 23 29 27 21 6z m446 4 c-8 -5 -22 -9 -30
-9 -10 0 -8 3 5 9 27 12 43 12 25 0z m-64 -22 c3 -4 -3 -8 -14 -8 -24 0 -76
-26 -92 -45 -7 -8 -18 -15 -25 -15 -6 0 5 18 24 40 29 31 43 39 69 38 18 -1
35 -5 38 -10z m184 -8 c0 -5 -7 -10 -15 -10 -8 0 -15 5 -15 10 0 6 7 10 15 10
8 0 15 -4 15 -10z m-383 -22 c-3 -8 -6 -5 -6 6 -1 11 2 17 5 13 3 -3 4 -12 1
-19z m-157 2 c0 -5 -7 -7 -15 -4 -8 4 -15 8 -15 10 0 2 7 4 15 4 8 0 15 -4 15
-10z m530 -24 c0 -14 -98 -62 -107 -53 -3 4 8 12 26 18 24 9 31 16 28 30 -3
11 1 19 12 22 22 5 41 -3 41 -17z m-820 10 c0 -11 -19 -15 -25 -6 -3 5 1 10 9
10 9 0 16 -2 16 -4z m990 -1 c0 -2 -10 -10 -22 -16 -21 -11 -22 -11 -9 4 13
16 31 23 31 12z m-815 -14 c-6 -5 -23 -12 -40 -16 -29 -6 -29 -6 -11 9 21 17
67 23 51 7z m128 -28 c-22 -8 -14 -25 8 -18 15 5 19 4 15 -4 -12 -19 -43 -12
-49 11 -7 25 12 43 28 26 7 -7 6 -12 -2 -15z m182 -4 c-2 -23 -47 -53 -68 -46
-7 2 4 12 23 22 19 10 29 20 23 22 -20 7 -15 23 5 23 13 0 18 -7 17 -21z
m-280 -10 c5 -6 2 -9 -8 -9 -13 0 -15 -5 -7 -24 6 -18 5 -28 -5 -36 -12 -10
-16 -9 -21 6 -3 11 -10 29 -16 41 -6 11 -7 26 -3 32 7 12 42 6 60 -10z m427
-11 c-8 -8 -9 -15 0 -25 6 -7 7 -17 3 -21 -4 -4 -10 -1 -12 6 -3 6 -13 12 -24
12 -18 0 -18 1 -2 20 10 11 24 20 32 20 12 0 12 -3 3 -12z m-282 -54 c0 -27
-12 -31 -30 -9 -10 12 -9 16 4 21 9 3 13 11 9 17 -3 6 -1 7 5 3 7 -4 12 -18
12 -32z m965 16 c3 -5 18 -10 33 -10 15 0 40 -7 56 -15 15 -8 32 -12 37 -9 5
3 16 1 25 -4 12 -7 6 -11 -27 -16 l-44 -8 56 -21 c31 -12 64 -30 73 -39 10
-10 23 -18 29 -18 7 0 6 -4 -3 -10 -12 -8 -9 -10 11 -10 33 0 80 -36 72 -55
-4 -12 4 -15 32 -15 29 0 36 -3 31 -15 -4 -10 1 -15 14 -15 11 0 20 -4 20 -10
0 -5 -5 -10 -11 -10 -5 0 -7 -5 -4 -11 4 -6 13 -8 21 -5 8 3 14 1 14 -4 0 -6
5 -10 10 -10 27 0 113 -126 115 -167 0 -14 8 -29 18 -34 9 -6 17 -17 17 -26 0
-9 6 -24 14 -32 8 -9 16 -25 18 -36 1 -11 13 -31 26 -45 12 -14 22 -33 22 -42
0 -10 4 -18 10 -18 5 0 7 -7 4 -15 -4 -8 -1 -15 5 -15 6 0 11 -11 11 -25 0
-14 6 -25 13 -25 9 0 9 -2 -1 -8 -9 -7 -8 -13 8 -27 11 -10 20 -24 20 -32 0
-7 5 -13 11 -13 5 0 7 -5 4 -11 -4 -6 3 -13 15 -16 12 -3 19 -11 16 -19 -3 -7
4 -16 16 -20 16 -5 18 -8 7 -15 -12 -7 -11 -9 1 -10 8 0 4 -5 -10 -9 l-25 -8
29 -1 c20 -1 27 -5 23 -15 -4 -9 1 -17 11 -19 10 -3 7 -5 -9 -6 -14 0 -41 -6
-60 -12 -19 -6 -40 -13 -48 -15 -8 -3 -11 -7 -8 -10 3 -3 26 2 51 10 52 18
111 22 86 6 -12 -8 -12 -10 3 -16 10 -4 16 -13 13 -20 -4 -9 2 -14 17 -15 17
-1 18 -2 5 -6 -10 -2 -18 -9 -18 -14 0 -5 8 -9 18 -10 15 0 14 -1 -3 -8 -17
-7 -16 -9 10 -16 26 -6 28 -8 10 -15 -17 -6 -17 -7 8 -13 18 -5 24 -12 21 -22
-4 -8 -2 -15 4 -15 5 0 8 -12 6 -27 -1 -15 0 -30 4 -33 15 -10 47 -66 47 -80
0 -8 9 -16 19 -18 28 -6 49 -29 67 -76 8 -23 20 -40 25 -39 5 1 10 -10 10 -23
1 -13 10 -36 20 -51 57 -80 130 -221 138 -263 2 -14 12 -43 21 -65 19 -43 32
-182 21 -212 -7 -16 -9 -16 -21 7 -8 14 -14 46 -15 71 0 92 -164 319 -305 424
-63 47 -75 58 -75 73 0 9 -6 12 -16 8 -9 -4 -23 -1 -30 5 -10 8 -18 8 -26 1
-7 -5 -27 -13 -44 -16 -19 -4 -35 -16 -42 -31 -7 -14 -18 -25 -27 -25 -8 0
-15 -7 -15 -15 0 -9 -7 -18 -15 -21 -8 -3 -26 -26 -40 -50 -14 -25 -30 -42
-35 -39 -5 3 -7 -8 -5 -24 2 -17 -1 -29 -6 -28 -6 1 -12 -28 -15 -67 -4 -71
16 -169 44 -213 7 -12 10 -28 6 -34 -4 -7 -3 -9 3 -6 5 3 20 -15 34 -41 26
-50 128 -214 185 -297 30 -43 32 -51 18 -54 -10 -2 -24 5 -32 15 -11 14 -13
15 -9 3 4 -12 0 -15 -19 -11 -13 2 -21 9 -17 15 3 6 1 7 -5 3 -23 -14 -152 79
-152 110 0 7 -5 16 -12 20 -7 5 -8 3 -3 -6 5 -9 4 -11 -3 -6 -7 4 -12 11 -12
16 0 5 -11 21 -25 36 -14 15 -25 31 -25 36 0 4 -14 27 -30 50 -17 23 -28 48
-26 55 3 7 0 12 -6 10 -6 -1 -13 4 -16 12 -3 9 0 11 9 7 8 -4 0 5 -17 21 -29
26 -151 218 -157 246 -1 7 -5 14 -8 17 -10 8 -63 118 -89 185 -13 33 -39 84
-57 113 -19 29 -31 58 -27 65 4 6 4 9 -1 5 -5 -5 -14 0 -20 10 -37 53 -49 75
-37 68 8 -5 7 5 -5 28 -9 20 -20 36 -25 36 -5 0 -13 10 -19 23 -10 23 -12 26
-74 127 -61 101 -110 170 -170 241 -16 20 -52 64 -78 97 -26 34 -58 64 -70 68
-25 8 -75 44 -61 44 5 0 -3 8 -17 18 -23 15 -77 63 -132 115 -76 74 -75 247 3
362 40 58 120 129 177 159 89 45 370 86 388 56z m-1585 -10 c0 -5 -9 -14 -20
-20 -15 -8 -20 -8 -20 3 0 8 3 17 7 20 10 10 33 8 33 -3z m320 -8 c0 -15 -11
-21 -27 -15 -12 5 -12 7 -1 14 17 11 28 11 28 1z m430 2 c0 -11 -34 -33 -50
-33 -10 0 -8 6 9 19 23 20 41 26 41 14z m-220 -21 c0 -7 -68 -33 -86 -33 -27
0 -9 24 27 36 30 10 59 9 59 -3z m-363 1 c-3 -3 -12 -4 -19 -1 -8 3 -5 6 6 6
11 1 17 -2 13 -5z m23 -39 c10 -12 9 -16 -4 -21 -9 -4 -20 -3 -24 1 -4 4 -1
10 7 13 11 4 11 6 0 13 -8 5 -9 9 -3 9 6 0 17 -7 24 -15z m504 6 c4 -5 -3 -7
-14 -4 -23 6 -26 13 -6 13 8 0 17 -4 20 -9z m-334 -16 c12 -15 7 -45 -7 -45
-13 0 -34 40 -28 50 9 14 21 12 35 -5z m235 -5 c-3 -5 -11 -10 -16 -10 -6 0
-7 5 -4 10 3 6 11 10 16 10 6 0 7 -4 4 -10z m-735 -10 c0 -5 -5 -10 -11 -10
-5 0 -7 5 -4 10 3 6 8 10 11 10 2 0 4 -4 4 -10z m620 -10 c0 -5 8 -10 18 -10
11 0 7 -5 -12 -15 -34 -18 -40 -15 -31 14 6 21 25 29 25 11z m115 -10 c3 -6
-2 -13 -12 -17 -10 -4 -21 -11 -25 -17 -5 -6 -8 -2 -8 10 0 11 3 24 7 27 10
10 31 8 38 -3z m-505 -28 c0 -9 -40 -35 -46 -29 -3 2 -2 12 2 21 6 16 44 23
44 8z m200 3 c0 -6 -38 -22 -77 -31 -23 -6 -24 -5 -14 15 9 16 21 21 51 21 22
0 40 -2 40 -5z m110 -34 c0 -4 -14 -15 -31 -25 l-31 -18 16 31 c11 20 21 28
31 25 8 -4 15 -9 15 -13z m125 -8 c-27 -19 -38 -16 -17 5 9 11 21 17 26 14 5
-3 1 -11 -9 -19z m-620 -4 c-32 -9 -47 -3 -26 10 7 5 23 6 35 3 19 -5 18 -6
-9 -13z m204 -6 c-13 -15 -12 -16 9 -11 12 4 22 2 22 -2 0 -16 -21 -22 -57
-15 -34 6 -34 7 -17 26 9 10 26 19 37 19 17 0 18 -2 6 -17z m320 -9 c-13 -16
-39 -19 -39 -4 0 6 7 10 15 10 8 0 15 5 15 11 0 5 5 7 10 4 8 -5 7 -11 -1 -21z
m-791 8 c9 -6 0 -14 -29 -25 -50 -20 -58 -16 -30 12 22 22 38 26 59 13z m137
-12 c-4 -13 -2 -20 6 -20 7 0 10 -2 7 -5 -3 -3 -13 -3 -22 1 -21 8 -21 44 0
44 11 0 14 -6 9 -20z m485 -1 l25 -20 -30 3 c-19 2 -31 9 -33 21 -4 22 7 21
38 -4z m-295 -39 c-18 -20 -65 -28 -65 -12 0 11 40 30 64 31 18 1 18 0 1 -19z
m170 0 c3 -5 -1 -10 -10 -10 -9 0 -13 5 -10 10 3 6 8 10 10 10 2 0 7 -4 10
-10z m211 -15 c-11 -8 -24 -15 -30 -15 -5 0 -1 7 10 15 10 8 24 14 29 14 6 0
1 -6 -9 -14z m-96 1 c0 -2 -9 -6 -20 -9 -11 -3 -18 -1 -14 4 5 9 34 13 34 5z
m-596 -47 c-3 -5 2 -12 10 -15 17 -6 22 -24 8 -24 -18 0 -40 26 -47 55 -6 29
-6 29 14 11 11 -10 18 -23 15 -27z m216 31 c0 -5 -6 -10 -14 -10 -8 0 -17 -9
-21 -19 -3 -11 -13 -22 -21 -25 -11 -4 -15 -2 -11 8 3 8 -2 16 -14 19 -24 6
-25 24 -1 29 41 9 82 8 82 -2z m110 -10 c-20 -13 -40 -13 -40 0 0 6 12 10 28
10 21 0 24 -2 12 -10z m191 0 c5 0 -1 -11 -13 -25 -15 -18 -31 -25 -52 -24
l-31 2 29 4 c21 3 26 7 16 13 -12 7 -12 11 0 25 7 9 20 13 27 10 8 -3 19 -5
24 -5z m59 -30 c0 -5 -4 -10 -10 -10 -5 0 -10 5 -10 10 0 6 5 10 10 10 6 0 10
-4 10 -10z m-219 -11 c12 -6 18 -17 15 -25 -3 -8 1 -17 9 -20 21 -8 8 -24 -19
-24 -15 0 -26 -7 -29 -20 -3 -11 -11 -20 -17 -20 -9 0 -10 3 -1 13 6 8 8 17 4
20 -3 4 -1 7 6 7 7 0 9 5 6 10 -3 6 -1 10 4 10 18 0 13 18 -11 40 -19 17 -20
20 -4 20 9 0 26 -5 37 -11z m-132 -36 c19 -16 19 -17 -4 -35 -13 -10 -29 -18
-37 -18 -8 1 -6 6 7 16 19 14 19 16 2 25 -9 6 -15 14 -12 20 9 13 22 11 44 -8z
m301 7 c-8 -5 -22 -9 -30 -9 -10 0 -8 3 5 9 27 12 43 12 25 0z m-640 -30 c0
-4 -7 -10 -15 -13 -16 -7 -29 8 -20 23 6 10 35 2 35 -10z m186 1 c-3 -5 1 -14
9 -21 8 -7 15 -19 15 -26 0 -8 6 -14 14 -14 8 0 14 -10 14 -25 0 -14 -6 -25
-12 -25 -6 0 -4 -5 4 -10 13 -8 13 -10 -1 -10 -22 0 -49 32 -32 37 19 7 -6 53
-29 53 -18 0 -26 29 -11 43 10 10 35 8 29 -2z m309 -46 c-39 -32 -54 -32 -24
0 13 13 31 25 39 25 9 0 3 -10 -15 -25z m-133 -5 c-18 -17 -52 -28 -52 -16 0
22 17 36 43 36 l31 0 -22 -20z m-357 0 c-3 -5 -11 -10 -16 -10 -6 0 -7 5 -4
10 3 6 11 10 16 10 6 0 7 -4 4 -10z m59 -19 c5 -7 -42 -31 -60 -31 -8 0 1 25
11 32 14 11 43 10 49 -1z m944 -24 c17 -6 32 -15 32 -19 0 -4 9 -8 20 -8 11 0
23 -7 26 -15 4 -8 15 -15 26 -15 10 0 17 -4 14 -8 -5 -9 6 -16 77 -48 21 -9
43 -26 49 -38 6 -11 26 -34 44 -49 19 -16 34 -36 34 -45 0 -10 9 -23 21 -30
11 -7 27 -29 36 -49 11 -29 17 -33 25 -22 7 10 8 7 4 -12 -5 -25 25 -96 48
-111 8 -6 7 -8 -1 -8 -7 0 -13 -7 -13 -15 0 -10 7 -15 17 -13 10 2 18 -3 18
-10 0 -7 6 -16 13 -21 7 -4 12 -12 10 -17 -1 -5 14 -25 35 -45 20 -20 37 -41
37 -46 0 -6 6 -16 14 -22 8 -7 17 -24 20 -39 4 -15 26 -67 50 -117 64 -131
103 -217 110 -242 4 -13 12 -23 17 -23 5 0 9 -7 9 -16 0 -8 16 -49 35 -91 19
-42 35 -84 35 -94 0 -10 5 -21 10 -24 6 -3 10 -13 10 -21 0 -7 14 -43 30 -77
17 -35 30 -71 30 -80 0 -8 4 -17 9 -19 5 -1 11 -16 13 -33 2 -16 11 -38 20
-49 9 -10 20 -32 23 -48 4 -16 13 -32 21 -35 8 -3 14 -9 14 -14 0 -6 10 -23
22 -39 20 -27 20 -32 7 -57 -8 -14 -29 -35 -46 -46 -18 -10 -33 -21 -33 -23 0
-6 64 27 70 36 11 15 50 18 50 4 0 -24 1 -29 12 -41 6 -7 7 -13 3 -13 -4 0 -3
-6 3 -13 7 -8 7 -18 2 -27 -5 -9 -5 -19 2 -27 7 -9 2 -19 -19 -38 -29 -27 -26
-26 39 11 16 10 24 7 44 -13 13 -13 24 -27 24 -31 0 -4 13 -22 29 -39 16 -17
33 -44 39 -60 6 -15 20 -52 31 -82 11 -30 19 -56 18 -57 -2 -2 -20 -4 -41 -6
-47 -3 -109 -52 -79 -62 10 -3 6 -4 -10 -2 -15 2 -30 -1 -33 -5 -3 -5 -14 -9
-24 -9 -11 0 -24 -9 -30 -20 -6 -11 -15 -18 -21 -15 -5 4 -9 2 -9 -4 0 -5 -16
-26 -35 -47 -19 -20 -35 -41 -35 -45 0 -5 -7 -9 -15 -9 -8 0 -15 -5 -15 -10 0
-6 -8 -23 -17 -37 -10 -14 -19 -38 -21 -52 -2 -14 -8 -28 -13 -31 -18 -12 13
-240 33 -240 5 0 8 -6 8 -12 0 -7 11 -35 25 -62 14 -27 25 -58 25 -68 0 -11 5
-16 10 -13 8 5 15 -9 8 -17 -4 -5 36 -71 55 -92 9 -11 17 -23 17 -28 0 -4 4
-8 9 -8 5 0 -19 57 -54 128 -86 172 -119 271 -112 339 13 130 125 233 251 233
23 0 46 -4 52 -8 14 -9 54 -89 60 -121 6 -27 53 -112 68 -123 22 -15 16 3 -18
56 -45 71 -46 80 -1 33 20 -21 33 -42 29 -48 -3 -5 0 -16 6 -24 6 -8 9 -19 5
-25 -3 -5 -2 -10 4 -10 6 0 16 -10 22 -22 l12 -23 -24 21 c-13 12 -42 31 -65
42 -22 12 -67 49 -99 84 -32 35 -52 52 -45 39 10 -19 10 -23 -2 -19 -7 3 -18
14 -23 25 -28 54 -53 65 -91 38 -15 -10 -20 -22 -17 -39 l5 -25 23 25 23 25
30 -44 c29 -42 77 -90 57 -58 -6 10 -4 12 5 6 10 -6 12 -3 7 11 -5 14 -2 12
12 -6 11 -14 17 -27 15 -30 -3 -2 -8 1 -12 7 -5 8 -10 7 -19 -2 -9 -10 0 -16
46 -29 60 -17 101 -40 89 -51 -3 -3 -30 1 -59 9 -29 9 -55 14 -58 11 -3 -3 5
-8 17 -12 34 -8 26 -20 -19 -27 -81 -13 -29 -18 68 -7 132 16 133 15 273 -135
31 -32 63 -70 73 -84 17 -24 17 -24 2 15 -9 22 -27 59 -41 83 -14 24 -24 46
-21 48 7 7 61 -92 83 -151 10 -27 21 -52 24 -55 4 -3 13 -16 19 -28 7 -13 15
-21 18 -18 8 7 -18 67 -26 62 -4 -3 -7 4 -7 15 0 10 2 19 4 19 10 0 83 -174
78 -186 -3 -8 -2 -12 4 -9 9 6 60 -141 60 -174 0 -25 -4 -28 -175 -126 -87
-50 -160 -85 -176 -85 -31 0 -84 54 -175 177 -54 72 -74 92 -74 75 0 -5 -21
-6 -52 -1 -138 22 -185 73 -405 439 -97 162 -204 349 -238 415 -77 151 -105
200 -174 300 -81 118 -271 420 -422 670 -73 121 -147 238 -164 260 -18 22 -50
73 -71 114 -21 40 -55 92 -75 115 -46 53 -196 257 -236 321 -66 105 -87 220
-62 335 28 131 193 286 369 348 55 19 78 21 150 16 47 -3 100 -11 118 -17z
m-1098 9 c0 -11 -19 -15 -25 -6 -3 5 1 10 9 10 9 0 16 -2 16 -4z m450 0 c0 -2
-7 -6 -15 -10 -8 -3 -15 -1 -15 4 0 6 7 10 15 10 8 0 15 -2 15 -4z m41 -15
c-8 -5 -10 -14 -6 -21 6 -9 1 -12 -17 -8 -23 4 -51 -13 -46 -29 2 -5 -10 -12
-27 -18 -43 -14 -55 -24 -55 -44 0 -21 -27 -47 -37 -37 -4 4 -1 11 6 16 8 4
11 15 8 24 -3 8 -2 18 3 21 5 3 7 15 5 26 -5 26 14 33 51 19 16 -6 25 -8 22
-4 -13 13 13 44 37 44 13 0 27 5 30 10 3 6 14 10 23 10 14 0 14 -2 3 -9z
m-466 -31 c3 -5 -1 -10 -10 -10 -9 0 -13 5 -10 10 3 6 8 10 10 10 2 0 7 -4 10
-10z m-142 -17 c9 -9 -22 -43 -40 -43 -13 0 -18 31 -6 43 8 9 38 9 46 0z m157
-23 c0 -5 -9 -10 -21 -10 -11 0 -17 5 -14 10 3 6 13 10 21 10 8 0 14 -4 14
-10z m173 3 c-7 -2 -19 -2 -25 0 -7 3 -2 5 12 5 14 0 19 -2 13 -5z m-20 -35
c-13 -12 -25 -19 -29 -15 -10 10 16 37 34 37 13 0 12 -4 -5 -22z m-133 -3 c-7
-8 -16 -15 -21 -15 -5 0 -9 7 -9 15 0 9 9 15 21 15 18 0 19 -2 9 -15z m-305
-25 c3 -5 1 -10 -4 -10 -6 0 -11 5 -11 10 0 6 2 10 4 10 3 0 8 -4 11 -10z
m3513 0 c13 0 21 -4 17 -9 -3 -6 11 -21 32 -35 l37 -26 13 30 c10 26 17 30 50
30 21 0 49 -6 63 -13 36 -18 87 -91 104 -147 16 -54 41 -248 33 -256 -3 -3
-10 35 -16 83 -16 125 -37 199 -71 248 -27 39 -83 75 -96 62 -3 -3 5 -8 18
-12 31 -10 59 -35 51 -48 -4 -6 -1 -7 7 -2 9 5 11 4 6 -4 -6 -9 -11 -9 -21 -1
-10 9 -19 9 -32 0 -16 -10 -16 -10 3 -5 15 4 24 0 28 -11 4 -9 9 -14 13 -10 8
8 36 -31 29 -42 -2 -4 0 -14 6 -22 8 -12 8 -11 3 5 -5 15 -3 17 6 8 13 -13 4
-47 -11 -38 -6 4 -7 -1 -3 -10 4 -12 8 -13 13 -5 5 8 9 4 13 -9 3 -12 2 -19
-3 -16 -9 6 -34 -50 -27 -62 2 -4 0 -17 -4 -28 -9 -19 -9 -19 -6 1 3 12 -1 21
-8 21 -9 0 -9 -10 1 -44 7 -23 9 -43 4 -43 -5 0 -11 8 -14 18 -5 19 3 -52 10
-83 4 -16 2 -15 -11 5 l-16 25 4 -27 c2 -16 0 -28 -4 -28 -5 0 -9 -8 -9 -17 0
-16 -2 -16 -11 -3 -9 12 -10 12 -5 -3 3 -10 6 -24 6 -30 0 -7 5 -6 11 3 7 10
9 11 7 2 -2 -8 -6 -12 -10 -10 -3 2 -17 -6 -30 -18 -30 -27 -59 -38 -52 -20 3
8 0 17 -7 22 -7 4 -10 3 -6 -3 4 -6 -11 -9 -37 -9 -31 1 -42 5 -39 14 4 10 9
10 19 1 8 -7 17 -10 20 -7 8 9 -44 38 -59 33 -7 -3 -22 4 -33 16 -12 15 -14
20 -4 15 8 -4 4 1 -10 13 -14 11 -25 25 -25 31 0 6 -11 20 -25 32 -15 12 -18
18 -8 14 9 -3 -2 14 -24 36 -28 28 -37 43 -28 46 9 3 5 9 -11 18 -13 7 -19 13
-13 14 8 0 5 13 -7 37 -10 21 -19 45 -19 55 0 10 -4 18 -9 18 -14 0 -23 103
-12 133 15 39 114 82 166 71 11 -2 30 -4 43 -4z m-3155 -25 c3 -18 -2 -30 -17
-40 -29 -21 -50 -19 -41 3 4 9 7 25 7 34 -1 14 10 21 39 27 4 0 9 -10 12 -24z
m157 20 c0 -15 -15 -35 -26 -35 -12 0 -12 -4 -2 -20 11 -17 10 -22 -2 -30 -34
-22 -59 4 -40 40 13 24 13 43 1 35 -5 -3 -12 -1 -16 4 -3 6 12 10 40 9 25 0
45 -2 45 -3z m-332 -34 c29 -15 28 -31 -2 -31 -24 0 -36 17 -36 48 0 11 3 13
8 6 4 -6 17 -16 30 -23z m442 25 c0 -2 -8 -10 -17 -17 -16 -13 -17 -12 -4 4
13 16 21 21 21 13z m-607 -28 c4 -12 4 -24 2 -26 -7 -8 -35 20 -35 34 0 23 27
16 33 -8z m547 -8 c0 -5 -5 -10 -11 -10 -5 0 -7 5 -4 10 3 6 8 10 11 10 2 0 4
-4 4 -10z m-647 -25 c-5 -16 -33 -21 -33 -7 0 13 22 32 31 26 5 -2 6 -11 2
-19z m327 -31 c0 -7 5 -25 12 -41 6 -15 11 -31 10 -35 -1 -5 4 -8 12 -8 22 0
7 -40 -18 -50 -29 -11 -36 -4 -30 29 4 21 1 34 -13 48 -27 27 -35 53 -23 68
13 16 50 8 50 -11z m148 -6 c2 -18 8 -36 15 -40 8 -5 7 -8 -5 -8 -10 0 -18 -7
-18 -15 0 -8 -2 -15 -4 -15 -2 0 -11 -3 -20 -6 -23 -9 -22 73 1 98 23 25 28
23 31 -14z m3392 -23 c0 -5 -5 -3 -10 5 -5 8 -10 20 -10 25 0 6 5 3 10 -5 5
-8 10 -19 10 -25z m-3711 -26 c-30 -19 -46 -1 -29 32 l12 21 15 -22 c13 -19
13 -24 2 -31z m-242 -7 c3 -26 -22 -41 -40 -23 -8 8 -8 11 1 11 7 0 12 9 12
21 0 27 22 19 27 -9z m158 -18 c16 -24 16 -26 -2 -39 -10 -8 -22 -13 -28 -11
-14 4 -19 56 -5 56 6 0 8 5 5 10 -14 23 14 8 30 -16z m137 4 c-18 -18 -14 -27
9 -21 21 6 21 5 4 -21 -17 -26 -17 -27 0 -40 10 -7 26 -11 35 -9 10 3 20 -2
23 -11 4 -10 1 -16 -9 -16 -8 0 -17 -8 -21 -17 -3 -10 -12 -25 -19 -33 -7 -8
-13 -19 -14 -25 -1 -17 -25 -65 -31 -65 -4 0 -10 7 -13 16 -5 12 -10 10 -31
-13 -13 -15 -25 -22 -25 -15 0 6 5 12 11 12 6 0 9 7 5 15 -3 8 -1 15 4 15 6 0
10 5 10 11 0 6 -7 9 -15 5 -10 -4 -15 1 -15 14 0 13 7 20 20 20 18 0 25 -10
21 -32 0 -5 5 -8 12 -8 19 0 36 35 42 84 5 42 4 46 -20 52 -25 6 -34 28 -15
39 18 11 10 26 -10 20 -11 -3 -20 -4 -20 -1 0 19 15 31 42 33 24 2 29 0 20 -9z
m185 -76 c-15 -16 -24 -31 -20 -35 3 -4 1 -7 -5 -7 -19 0 -14 22 11 47 33 32
45 28 14 -5z m-444 -11 c6 -23 0 -31 -24 -31 -22 0 -33 16 -25 35 8 22 43 18
49 -4z m177 -10 c0 -11 5 -21 12 -23 8 -3 4 -12 -10 -26 -24 -24 -54 -30 -51
-9 1 6 -1 20 -6 30 -5 12 -2 22 11 32 27 20 44 18 44 -4z m201 -22 c-12 -13
-21 -19 -21 -14 0 11 32 46 38 41 2 -3 -5 -15 -17 -27z m-354 -19 c-5 -19 3
-24 31 -21 8 1 11 -10 9 -38 -3 -36 -1 -39 15 -30 14 7 18 6 18 -5 0 -8 -5
-18 -10 -21 -15 -9 7 -35 24 -29 14 5 29 -10 39 -38 5 -13 -3 -22 -29 -34 -33
-16 -63 -12 -35 5 10 6 9 10 -4 14 -12 5 -14 11 -5 27 8 15 7 23 -7 37 -10 10
-26 17 -36 15 -16 -3 -17 1 -11 32 5 28 3 36 -9 36 -23 0 -30 31 -11 51 22 24
28 24 21 -1z m-163 -22 c-3 -4 -9 -8 -15 -8 -5 0 -9 4 -9 8 0 5 7 9 15 9 8 0
12 -4 9 -9z m54 -40 c-2 -24 -9 -34 -23 -36 -16 -3 -18 -1 -7 9 18 19 15 31
-8 24 -14 -4 -20 -2 -20 8 0 20 10 27 37 27 21 0 24 -4 21 -32z m-200 -60 c-3
-7 -13 -15 -24 -17 -16 -3 -17 -1 -5 13 16 19 34 21 29 4z m112 -26 c0 -37
-44 -57 -52 -24 -8 28 2 42 28 42 16 0 24 -6 24 -18z m130 8 c-8 -5 -13 -10
-10 -11 52 -9 55 -12 45 -36 -5 -10 -10 -30 -12 -45 -2 -24 1 -28 21 -28 24 0
38 -29 28 -58 -7 -21 -42 -14 -42 8 0 11 -4 20 -10 20 -5 0 -7 7 -4 15 4 8 1
15 -5 15 -6 0 -11 5 -11 11 0 6 -7 17 -15 25 -18 19 -20 80 -2 87 21 9 33 7
17 -3z m-227 -67 c-7 -3 -13 -18 -13 -34 0 -16 -4 -29 -10 -29 -10 0 -30 32
-30 49 0 10 52 31 60 23 3 -2 -1 -7 -7 -9z m107 -7 c0 -8 10 -16 23 -18 15 -2
21 -9 19 -20 -2 -10 3 -18 11 -18 18 0 29 -27 22 -50 -6 -19 -32 -34 -39 -22
-30 51 -45 85 -41 92 3 5 1 11 -5 15 -13 8 -13 35 0 35 6 0 10 -6 10 -14z
m774 -11 c20 -8 39 -16 43 -17 27 -6 143 -158 157 -205 4 -11 13 -24 21 -27 8
-3 15 -14 15 -25 0 -11 11 -32 24 -48 25 -30 60 -103 48 -103 -3 0 -1 -5 6
-12 7 -7 12 -20 12 -31 0 -26 58 -170 100 -247 19 -36 42 -81 52 -100 9 -19
40 -84 69 -145 29 -60 60 -130 69 -155 18 -48 38 -90 177 -361 85 -167 133
-242 133 -209 0 8 8 0 18 -18 9 -18 31 -47 48 -65 17 -18 55 -81 84 -141 43
-87 50 -110 39 -117 -8 -5 -9 -9 -3 -9 6 0 16 -12 22 -26 7 -14 17 -22 23 -18
8 4 8 0 0 -15 -13 -24 -31 -28 -31 -6 0 8 -7 15 -15 15 -8 0 -16 8 -16 18 -1
16 -2 16 -6 0 -2 -10 -9 -18 -14 -18 -5 0 -9 -5 -9 -11 0 -6 7 -8 16 -5 8 3
12 2 9 -4 -3 -6 -16 -10 -28 -10 -12 0 -35 -11 -51 -25 -16 -14 -35 -25 -42
-25 -7 0 -18 -9 -24 -20 -6 -11 -15 -20 -20 -20 -13 0 -65 -53 -62 -63 1 -5
-2 -6 -8 -2 -5 3 -13 -2 -17 -12 -3 -10 -13 -28 -21 -41 -16 -24 -25 -76 -23
-128 1 -33 54 -158 77 -181 8 -8 11 -20 7 -26 -3 -7 -2 -9 2 -5 5 5 15 -3 24
-16 9 -13 34 -50 55 -82 22 -33 55 -81 73 -109 19 -27 47 -66 64 -85 16 -19
-1 12 -39 70 -104 158 -181 285 -198 325 -21 51 -33 123 -27 162 5 30 7 32 19
16 12 -17 13 -17 14 -1 0 9 5 20 12 24 7 5 8 3 3 -7 -5 -8 7 3 27 24 19 20 41
37 47 37 7 0 9 5 6 10 -3 6 -2 10 4 10 5 0 12 -4 15 -9 3 -5 31 -12 61 -16 30
-3 53 -11 50 -16 -4 -5 1 -9 9 -9 9 0 16 -4 16 -9 0 -4 31 -8 69 -7 38 1 66 5
64 10 -9 14 -145 73 -186 80 -48 9 -133 -18 -148 -46 -6 -11 -13 -17 -16 -14
-3 3 -14 -5 -24 -17 -14 -17 -18 -18 -19 -7 0 24 70 96 120 122 56 29 129 30
183 4 21 -11 67 -49 103 -85 76 -79 204 -232 204 -244 0 -5 14 -29 31 -53 17
-25 32 -51 33 -57 5 -23 40 -87 48 -87 4 0 5 -7 2 -15 -4 -8 -1 -15 4 -15 6 0
14 -9 17 -20 4 -11 11 -18 16 -15 5 3 6 0 3 -8 -3 -8 2 -20 11 -27 8 -7 15
-19 15 -27 0 -8 5 -11 11 -8 6 4 8 13 5 21 -10 26 3 14 19 -17 9 -17 14 -33
11 -37 -3 -3 -6 0 -6 7 0 7 -4 9 -10 6 -6 -4 -7 1 -4 12 5 15 4 15 -5 3 -7
-10 -6 -19 3 -30 8 -8 21 -28 29 -45 10 -19 16 -24 17 -13 0 9 -4 20 -10 23
-5 3 -10 11 -10 18 0 24 20 -10 45 -78 l27 -70 -29 -22 c-92 -72 -280 -203
-291 -203 -14 0 -111 95 -229 223 -34 37 -66 67 -70 67 -3 0 6 -13 21 -29 l28
-29 -43 5 c-100 13 -205 74 -277 161 -21 26 -72 96 -112 157 -40 60 -110 159
-155 220 -45 60 -107 148 -137 195 -140 216 -195 297 -313 465 -70 99 -144
205 -164 235 -21 30 -62 91 -92 135 -208 302 -285 425 -362 580 -155 310 -179
440 -108 588 39 82 171 239 241 286 82 56 245 79 324 46z m-524 -22 c0 -13
-26 -82 -33 -89 -12 -12 -8 43 5 71 10 23 28 35 28 18z m-456 -49 c15 -6 15
-8 -1 -19 -20 -15 -43 -9 -43 11 0 15 18 18 44 8z m96 -24 c0 -11 -4 -20 -10
-20 -5 0 -10 9 -10 20 0 11 5 20 10 20 6 0 10 -9 10 -20z m64 -43 c20 -18 36
-41 36 -50 0 -9 4 -18 9 -21 4 -3 6 -17 3 -31 -6 -31 -42 -35 -42 -5 0 12 -11
31 -24 43 -23 22 -45 97 -28 97 5 0 26 -15 46 -33z m157 7 c9 -12 10 -17 1
-23 -8 -5 -5 -12 9 -25 19 -15 19 -19 6 -39 -18 -27 -63 -37 -53 -12 3 9 6 39
6 66 0 51 8 60 31 33z m-287 -75 c-1 -24 17 -49 35 -49 6 0 11 -5 11 -10 0 -6
12 -15 26 -20 19 -8 23 -14 16 -23 -16 -18 7 -81 34 -94 18 -9 24 -7 34 12 6
11 12 42 13 68 2 47 21 65 33 32 5 -12 10 -13 20 -4 8 6 14 18 14 25 0 8 4 14
9 14 14 0 19 -70 5 -80 -8 -8 -10 -3 -6 17 l5 27 -23 -22 c-22 -20 -29 -36
-32 -69 -1 -7 -5 -13 -9 -13 -14 0 -40 -52 -44 -88 -3 -35 -17 -60 -91 -162
l-22 -29 -6 50 c-5 34 -3 55 6 67 16 21 48 28 48 10 0 -9 3 -9 10 2 23 36 4
150 -25 150 -11 0 -31 62 -27 81 1 4 -10 17 -23 29 -14 13 -25 29 -25 37 0 7
-7 13 -15 13 -18 0 -18 1 -5 35 12 32 35 28 34 -6z m-129 -59 c-10 -17 -25
-11 -34 13 -5 13 -5 27 2 35 8 11 13 8 24 -13 8 -14 11 -30 8 -35z m60 -87 c7
-34 -6 -56 -27 -48 -20 8 -33 82 -17 101 10 12 14 11 26 -5 7 -11 16 -32 18
-48z m-151 19 c0 -12 5 -22 13 -22 16 0 17 -42 1 -58 -20 -20 -40 -15 -28 7
14 28 13 33 -10 26 -17 -5 -19 -2 -15 32 2 21 4 39 4 41 1 2 9 2 19 0 10 -2
17 -12 16 -26z m36 19 c0 -6 -4 -13 -10 -16 -5 -3 -10 1 -10 9 0 9 5 16 10 16
6 0 10 -4 10 -9z m203 -104 c-11 -17 -11 -61 0 -74 6 -9 6 -13 -2 -13 -6 0
-11 -9 -11 -20 0 -11 -3 -20 -6 -20 -14 0 -37 34 -44 65 -7 31 -5 37 24 59 30
23 53 26 39 3z m173 -15 c-18 -16 -18 -16 -6 6 6 13 14 21 18 18 3 -4 -2 -14
-12 -24z m-492 -65 c-3 -8 -17 -14 -33 -13 -24 1 -26 3 -17 21 25 46 27 48 42
27 8 -11 12 -27 8 -35z m154 21 c-4 -49 -41 -67 -53 -28 -11 33 4 60 31 60 23
0 25 -4 22 -32z m-95 -73 c-1 -11 3 -23 9 -26 5 -4 10 -23 11 -43 1 -20 5 -36
9 -36 15 0 8 -27 -12 -45 -18 -16 -20 -16 -26 -1 -3 9 -3 23 0 32 8 20 -33 94
-51 94 -17 0 -16 6 5 29 22 26 58 23 55 -4z m168 -7 c0 -13 2 -40 5 -60 5 -44
-8 -56 -35 -31 -27 25 -36 100 -13 106 34 9 42 6 43 -15z m-281 -34 c0 -3 -6
-2 -12 2 -7 4 -5 -1 4 -12 11 -13 14 -24 8 -34 -5 -8 -5 -19 0 -25 13 -16 -13
-51 -29 -41 -7 5 -10 14 -7 21 2 7 1 29 -4 50 -11 49 -4 68 21 54 10 -5 19
-12 19 -15z m359 -120 c1 -13 -8 -25 -24 -32 -17 -8 -25 -20 -25 -38 0 -16 -5
-24 -12 -21 -8 2 -19 -13 -28 -37 -9 -23 -23 -42 -33 -44 -14 -3 -17 4 -17 43
0 38 4 48 20 52 23 6 44 37 54 78 4 17 17 38 29 47 21 16 22 16 29 -5 3 -12 6
-31 7 -43z m3671 13 c78 -103 152 -282 167 -406 l6 -46 -34 26 c-36 28 -110
147 -184 293 -51 101 -63 149 -45 172 21 25 52 12 90 -39z m-3817 6 c12 -92 8
-104 -25 -79 -31 23 -20 116 13 116 4 0 9 -17 12 -37z m-169 -28 c10 -8 23
-12 27 -9 14 8 11 -3 -9 -36 -14 -23 -21 -27 -30 -18 -7 7 -12 20 -12 29 0 10
-4 21 -10 24 -14 9 -12 25 3 25 6 0 21 -7 31 -15z m91 -117 c-9 -65 -18 -76
-39 -47 -21 31 -20 51 4 77 34 36 43 28 35 -30z m87 -77 c-2 -8 2 -17 8 -21 8
-5 6 -17 -8 -39 -19 -31 -35 -33 -25 -3 3 10 -2 8 -11 -5 -10 -13 -23 -23 -29
-23 -7 0 -19 -28 -27 -62 -17 -71 -40 -84 -51 -29 -7 34 -5 37 52 97 14 15 18
28 14 46 -4 17 -1 31 11 42 20 20 70 18 66 -3z m402 -25 c38 -16 69 -62 86
-126 19 -76 51 -173 76 -228 13 -29 24 -55 24 -58 0 -2 32 -56 70 -120 39 -63
70 -117 70 -120 0 -3 18 -29 40 -58 22 -29 40 -55 40 -59 0 -10 74 -92 150
-164 41 -40 78 -76 82 -80 31 -31 131 -161 149 -193 13 -22 28 -40 34 -40 12
0 143 -140 144 -153 0 -4 7 -15 16 -24 9 -8 19 -28 22 -44 3 -16 9 -29 14 -29
5 0 9 -7 9 -15 0 -20 -32 3 -121 87 -131 123 -210 168 -292 168 -116 -1 -232
-124 -212 -226 9 -48 65 -141 115 -189 22 -22 42 -38 43 -35 2 3 34 -28 72
-69 63 -67 117 -114 215 -191 68 -53 75 -60 63 -60 -7 0 -35 20 -63 45 -36 32
-59 45 -80 45 -68 0 -178 60 -295 162 -289 250 -330 290 -434 428 -36 47 -100
129 -143 183 -312 389 -400 595 -340 793 48 158 188 328 305 371 44 16 101 16
141 -1z m-546 -75 c-8 -12 -18 -18 -21 -14 -11 10 -8 45 3 38 6 -3 10 -1 10 6
0 10 3 10 11 2 8 -8 7 -17 -3 -32z m3252 -231 c0 -5 -5 -10 -11 -10 -5 0 -7 5
-4 10 3 6 8 10 11 10 2 0 4 -4 4 -10z m241 -587 c13 -16 12 -17 -3 -4 -10 7
-18 15 -18 17 0 8 8 3 21 -13z m159 -8 c7 -8 18 -15 26 -15 17 0 21 -7 29 -53
5 -25 4 -37 -4 -37 -6 0 -11 8 -12 18 0 11 -2 13 -6 4 -3 -9 -14 -1 -29 22
-14 20 -29 36 -34 36 -6 0 -10 9 -10 20 0 24 22 26 40 5z m-440 -15 c0 -5 -4
-10 -10 -10 -5 0 -10 5 -10 10 0 6 5 10 10 10 6 0 10 -4 10 -10z m356 -84 c57
-88 77 -130 100 -206 l13 -44 -64 64 c-64 64 -65 66 -70 129 -3 34 -14 81 -24
102 -11 21 -17 39 -15 39 3 0 29 -38 60 -84z m-278 33 c19 -30 11 -32 -11 -3
-10 13 -14 24 -10 24 5 0 14 -9 21 -21z m441 -61 c0 -31 -1 -31 -10 -10 -5 13
-7 28 -3 33 10 16 14 9 13 -23z m-1216 -248 c7 0 27 -13 45 -30 18 -16 37 -30
41 -30 4 0 14 -11 21 -25 7 -13 17 -22 22 -19 4 3 11 -3 15 -13 4 -10 17 -32
30 -49 43 -57 27 -71 -27 -23 -107 94 -232 225 -207 216 10 -4 17 -1 17 6 0 6
7 1 16 -11 8 -12 21 -22 27 -22z m1285 -75 c-3 -3 -9 2 -12 12 -6 14 -5 15 5
6 7 -7 10 -15 7 -18z m-2621 -110 c63 -53 199 -248 187 -267 -9 -14 -87 42
-167 121 -84 81 -107 115 -107 156 0 37 37 33 87 -10z m-82 -215 c3 -5 1 -10
-4 -10 -6 0 -11 5 -11 10 0 6 2 10 4 10 3 0 8 -4 11 -10z m390 -370 c3 -6 -1
-7 -9 -4 -18 7 -21 14 -7 14 6 0 13 -4 16 -10z m1961 -956 c77 -48 148 -95
159 -105 19 -19 19 -19 0 -76 -21 -62 -202 -433 -211 -433 -3 0 -2 9 1 20 4
11 2 20 -4 20 -7 0 -6 10 1 31 11 33 3 52 -13 29 -5 -8 -7 -36 -3 -61 3 -29 1
-49 -5 -54 -6 -3 -11 -11 -11 -17 0 -6 7 -5 18 3 14 11 15 11 5 -1 -15 -16
-43 -22 -43 -10 0 5 4 11 9 14 5 3 9 22 8 41 -1 27 -4 32 -14 23 -7 -6 -13
-18 -13 -27 0 -9 -9 -22 -20 -29 -21 -13 -63 -86 -54 -95 3 -3 -4 -10 -15 -17
-12 -6 -21 -17 -21 -26 0 -8 -7 -17 -15 -20 -8 -4 -12 -10 -9 -15 3 -5 10 -7
15 -4 5 3 6 -1 2 -10 -4 -12 -8 -13 -13 -5 -5 8 -12 7 -24 -5 -9 -9 -16 -20
-16 -24 0 -4 -18 -27 -40 -52 -22 -24 -40 -47 -40 -51 0 -5 -7 -8 -16 -8 -8 0
-13 -4 -10 -8 2 -4 -18 -18 -45 -30 -44 -21 -55 -22 -105 -13 -88 17 -141 58
-183 143 -12 24 -11 32 8 70 l22 43 -26 -30 -26 -30 4 75 c2 41 14 102 25 135
14 38 16 53 7 41 -28 -37 -50 -130 -50 -212 0 -73 3 -85 30 -125 16 -24 34
-53 40 -64 6 -11 17 -20 25 -20 8 0 14 -8 12 -17 -1 -10 8 -20 25 -26 16 -6
22 -11 16 -11 -24 -2 -13 -30 17 -48 17 -9 30 -21 30 -25 0 -4 7 -8 15 -8 8 0
15 -6 15 -13 0 -7 11 -29 25 -49 26 -39 31 -53 16 -43 -5 3 -12 1 -15 -4 -4
-5 -2 -12 4 -16 12 -7 -3 -34 -42 -79 -16 -17 -28 -34 -28 -38 0 -5 -7 -8 -15
-8 -8 0 -15 -7 -15 -15 0 -16 -24 -20 -95 -16 l-40 2 27 -18 c17 -10 32 -33
40 -60 8 -28 15 -38 21 -30 5 8 7 5 5 -8 -2 -12 -12 -21 -27 -23 -19 -3 -21
-6 -10 -13 26 -16 -32 -9 -126 15 -49 13 -92 22 -94 20 -10 -10 117 -57 180
-66 66 -10 70 -12 64 -32 -4 -11 -8 -32 -9 -46 0 -14 -10 -34 -22 -45 -12 -11
-24 -28 -27 -37 -4 -10 -12 -15 -21 -12 -8 3 -17 1 -21 -5 -3 -7 2 -11 14 -11
12 0 21 -4 21 -10 0 -5 -7 -10 -15 -10 -8 0 -15 -7 -15 -15 0 -8 -5 -15 -11
-15 -8 0 -8 -5 1 -15 10 -12 10 -15 -1 -15 -12 0 -12 -2 0 -9 11 -7 8 -12 -14
-23 -18 -10 -24 -18 -16 -22 17 -11 13 -41 -10 -70 -11 -14 -16 -26 -10 -26 6
0 4 -12 -5 -27 -7 -16 -14 -36 -14 -46 0 -9 -9 -25 -20 -34 -11 -10 -20 -25
-20 -35 0 -9 -4 -20 -10 -23 -5 -3 -10 -21 -10 -40 0 -18 -4 -35 -9 -37 -16
-6 -61 -80 -62 -102 0 -19 -1 -19 -8 -2 -6 15 -10 10 -21 -25 -8 -24 -20 -47
-26 -52 -7 -4 -18 -24 -25 -45 -6 -20 -18 -41 -25 -45 -8 -4 -14 -21 -14 -37
0 -17 -4 -30 -10 -30 -5 0 -16 -16 -24 -35 -8 -19 -18 -35 -21 -35 -3 0 -3 5
1 12 4 7 3 8 -4 4 -7 -4 -12 -18 -12 -32 0 -27 -9 -30 -29 -11 -11 10 -13 6
-8 -20 7 -35 -11 -53 -53 -53 -17 0 -19 -4 -14 -25 6 -24 5 -26 -22 -19 -26 7
-28 6 -15 -9 12 -15 11 -17 -3 -17 -9 0 -16 -6 -16 -13 0 -8 -11 -24 -25 -37
-21 -20 -28 -22 -50 -12 -36 17 -39 15 -15 -10 24 -26 25 -38 4 -38 -11 0 -14
-5 -10 -16 5 -12 2 -15 -9 -10 -9 3 -14 2 -11 -2 5 -9 -9 -36 -21 -38 -42 -8
-54 -18 -48 -41 7 -29 -9 -53 -36 -53 -11 0 -19 -4 -19 -10 0 -5 7 -10 15 -10
24 0 -31 -47 -72 -61 -49 -17 -50 -18 -33 -29 12 -8 12 -10 -3 -14 -47 -16
-52 -18 -39 -23 21 -8 3 -23 -28 -23 -22 0 -28 -4 -24 -15 17 -43 -151 6 -266
78 -47 29 -93 56 -103 60 -28 11 -127 88 -127 100 0 6 -3 8 -6 4 -4 -3 -17 10
-30 29 -42 61 -28 164 43 314 14 30 48 107 75 170 69 156 125 254 228 390 47
63 133 183 190 265 57 83 124 177 148 210 103 139 324 484 408 635 111 201
348 533 464 651 67 67 103 95 170 129 55 28 95 56 113 79 56 72 171 194 210
222 22 16 50 29 62 29 12 0 85 -39 161 -86z m-1416 52 c0 -2 -8 -10 -17 -17
-16 -13 -17 -12 -4 4 13 16 21 21 21 13z m-11 -73 c0 -5 -19 -24 -42 -43 l-42
-35 35 42 c33 39 51 52 49 36z m111 -87 c-12 -25 -38 -60 -59 -76 -59 -50 -91
-83 -87 -88 3 -2 17 5 33 15 44 31 61 37 33 12 -14 -12 -24 -26 -23 -30 2 -5
0 -8 -5 -8 -27 4 -48 -7 -102 -57 -33 -31 -59 -59 -56 -61 3 -3 20 3 38 12 18
9 44 21 58 26 28 10 29 11 -47 -43 -18 -13 -33 -30 -33 -39 0 -17 -45 -89 -64
-102 -7 -5 -5 -11 7 -18 17 -10 17 -12 -10 -26 -15 -8 -32 -16 -38 -17 -37 -7
-134 -51 -152 -68 -13 -12 -23 -18 -23 -13 0 4 -9 0 -20 -10 -11 -10 -17 -23
-13 -29 4 -7 1 -7 -7 1 -10 9 -6 20 19 51 40 52 58 96 81 199 10 47 22 88 25
91 9 9 -2 -65 -20 -135 -7 -29 -11 -53 -9 -53 2 0 16 18 30 40 21 32 27 55 31
115 2 41 7 85 12 97 7 16 8 7 5 -32 l-5 -55 23 55 c31 75 47 102 58 95 4 -3
11 1 13 7 3 7 6 -2 6 -21 1 -26 4 -32 17 -27 13 5 15 1 12 -19 -3 -14 -2 -25
2 -25 11 0 20 38 20 86 0 44 23 84 96 169 l41 47 -13 -71 c-8 -39 -27 -99 -44
-133 -17 -33 -24 -56 -16 -49 7 6 28 46 46 89 64 151 80 185 86 179 3 -3 0
-15 -6 -27 -18 -33 -48 -150 -39 -150 19 0 79 87 96 139 15 45 19 51 21 30 2
-15 -7 -48 -18 -73z m-231 34 c-31 -38 -39 -46 -39 -35 0 6 61 75 67 75 2 0
-11 -18 -28 -40z m-766 -4 c11 -28 -33 -37 -59 -12 -12 13 -10 15 13 19 16 2
31 5 34 6 4 0 9 -5 12 -13z m204 -22 c64 -8 88 -27 97 -76 7 -38 -10 -68 -39
-68 -8 0 -29 -13 -47 -30 -36 -33 -56 -38 -64 -15 -9 22 13 44 53 51 19 4 37
14 41 23 3 9 10 19 15 22 13 9 -1 46 -21 54 -9 3 -39 8 -65 11 -56 4 -67 9
-67 31 0 11 6 14 23 10 12 -3 46 -9 74 -13z m-432 -12 c0 -14 -6 -15 -40 -6
-35 9 -31 19 7 18 18 0 33 -6 33 -12z m158 9 c16 -2 6 -20 -15 -26 -13 -4 -33
-14 -46 -21 -18 -12 -20 -18 -12 -34 9 -16 7 -22 -5 -26 -8 -3 -15 -15 -15
-25 0 -12 -7 -19 -19 -19 -27 0 -37 21 -18 35 9 7 14 15 10 18 -3 4 0 13 7 22
7 9 10 29 7 48 l-5 32 52 -1 c28 -1 54 -2 59 -3z m767 -28 c-11 -16 -43 -59
-70 -98 -27 -38 -54 -76 -60 -82 -6 -7 -7 -13 -3 -13 4 0 -2 -7 -14 -15 -12
-9 -32 -33 -44 -55 -13 -22 -27 -40 -31 -40 -5 0 -6 -4 -3 -10 3 -5 2 -10 -4
-10 -5 0 -25 -30 -43 -67 -29 -60 -33 -77 -32 -143 1 -67 4 -79 27 -104 15
-16 24 -33 20 -39 -3 -6 -1 -7 5 -3 7 4 12 4 12 -1 0 -4 12 -21 26 -38 15 -17
23 -22 20 -12 -5 16 -4 16 19 1 27 -17 33 -34 13 -34 -9 0 -8 -3 1 -12 11 -10
14 -10 18 0 3 6 9 12 15 12 6 0 3 -9 -6 -19 -12 -13 -14 -21 -6 -26 5 -3 8
-11 5 -16 -4 -5 3 -9 14 -9 12 0 21 -7 21 -15 0 -8 10 -23 22 -35 12 -11 16
-20 9 -20 -7 0 -9 -4 -6 -10 3 -5 1 -10 -5 -10 -6 0 -9 -8 -6 -18 5 -13 0 -22
-15 -28 -14 -7 -23 -21 -25 -40 -5 -52 -16 -94 -25 -94 -5 0 -9 -9 -9 -19 0
-11 -5 -23 -10 -26 -6 -4 -8 -10 -5 -15 3 -5 0 -18 -7 -30 -11 -16 -19 -19
-48 -13 -32 6 -34 5 -21 -11 17 -20 23 -63 11 -71 -5 -3 -18 -26 -29 -50 -13
-29 -26 -45 -38 -45 -13 0 -15 -3 -5 -8 14 -10 7 -37 -15 -64 -8 -9 -12 -22
-8 -27 3 -6 -1 -14 -9 -17 -9 -3 -26 -28 -38 -55 -13 -27 -26 -49 -30 -49 -5
0 -8 -8 -8 -19 0 -10 -7 -24 -15 -31 -8 -7 -15 -18 -15 -25 0 -6 -11 -25 -24
-40 -14 -16 -23 -32 -21 -36 3 -4 -2 -12 -10 -19 -8 -7 -15 -19 -15 -26 0 -8
-4 -14 -10 -14 -5 0 -10 -6 -10 -14 0 -7 -7 -19 -15 -26 -9 -7 -13 -15 -11
-18 6 -5 -56 -99 -84 -127 -11 -12 -20 -28 -20 -38 0 -12 -8 -17 -25 -17 -22
0 -25 -4 -20 -23 5 -16 -1 -33 -17 -53 -13 -16 -39 -53 -58 -82 -19 -28 -42
-55 -52 -57 -9 -3 -19 -13 -22 -21 -3 -8 -10 -13 -14 -10 -4 3 -16 -11 -27
-30 -10 -19 -21 -34 -25 -34 -4 0 -20 -18 -35 -40 -19 -27 -35 -40 -51 -40
-17 0 -24 -7 -29 -30 -5 -22 -11 -30 -23 -26 -10 2 -37 8 -61 11 -32 5 -53 17
-82 46 -21 21 -39 34 -39 27 0 -33 -175 158 -236 258 -52 87 -57 99 -56 152 2
109 51 244 146 397 55 90 299 380 474 563 23 25 42 49 42 54 0 5 4 7 9 4 5 -3
34 47 66 112 104 211 162 294 394 562 180 208 238 259 356 316 67 32 82 31 55
-3z m-693 -18 c3 -9 -3 -25 -13 -36 -11 -13 -17 -32 -16 -49 4 -31 -24 -55
-47 -41 -9 6 -8 21 8 66 25 71 54 96 68 60z m131 -27 c2 -19 -3 -30 -17 -38
-13 -6 -21 -21 -21 -35 0 -30 -5 -31 -32 -6 l-21 20 29 46 c32 50 57 55 62 13z
m1088 10 c10 -16 -107 -124 -142 -131 -31 -5 -52 1 -37 12 5 3 31 30 58 60 38
41 45 53 30 51 -33 -4 -41 0 -25 10 21 14 107 12 116 -2z m-1831 -147 c2 -22
-26 -46 -39 -34 -11 11 -6 51 7 56 20 9 30 2 32 -22z m903 2 c-4 -22 -48 -31
-48 -10 0 19 10 27 32 27 13 0 18 -6 16 -17z m812 -53 c0 -17 -97 -16 -114 1
-6 5 14 9 52 9 35 0 62 -4 62 -10z m-1894 -77 c-11 -11 -19 6 -11 24 8 17 8
17 12 0 3 -10 2 -21 -1 -24z m1824 -9 c-53 -53 -88 -74 -128 -74 -44 0 -121
30 -133 52 -9 16 -5 15 30 -7 36 -25 83 -31 81 -12 -1 5 8 17 20 27 12 10 20
22 18 27 -2 6 73 23 147 32 5 0 -11 -20 -35 -45z m-1450 17 c0 -5 12 -14 28
-20 34 -15 82 -81 89 -125 4 -29 2 -34 -18 -39 -13 -4 -26 -6 -29 -6 -2 0 -7
-7 -10 -16 -6 -16 -7 -16 -22 -1 -9 9 -19 16 -21 16 -3 0 -29 16 -59 35 -81
54 -149 71 -222 56 -82 -17 -144 -51 -195 -106 -50 -54 -71 -100 -71 -153 0
-58 45 -91 91 -66 32 17 32 17 62 -6 25 -20 26 -21 11 -62 -8 -23 -15 -77 -16
-119 l-2 -77 -38 21 c-65 36 -105 89 -130 169 -12 40 -22 91 -22 113 2 82 92
211 186 264 27 15 46 30 43 33 -6 5 137 74 182 88 38 11 163 12 163 1z m3240
-131 c0 -11 -29 -82 -63 -158 -35 -75 -70 -153 -77 -172 -45 -122 -103 -238
-163 -328 -38 -57 -71 -101 -74 -99 -23 24 130 408 157 392 5 -3 12 0 16 6 4
8 3 9 -4 5 -7 -4 -12 -4 -12 0 0 11 158 313 181 345 24 34 39 37 39 9z m-3753
-16 c-3 -3 -12 -4 -19 -1 -8 3 -5 6 6 6 11 1 17 -2 13 -5z m1818 -36 c29 -5
-79 -58 -118 -57 -29 0 -30 1 -13 12 11 7 30 22 43 35 13 12 28 22 34 22 6 0
7 6 3 13 -4 6 1 5 12 -4 10 -10 28 -19 39 -21z m2 16 c-3 -3 -12 -4 -19 -1 -8
3 -5 6 6 6 11 1 17 -2 13 -5z m-1735 -59 c-36 -40 -57 -102 -41 -121 10 -12
-7 -64 -21 -64 -30 0 -32 77 -3 134 20 41 63 86 81 86 9 0 3 -12 -16 -35z
m1453 -31 c14 -16 63 -26 69 -15 4 5 0 11 -6 14 -7 2 15 3 50 1 36 -2 78 2
100 10 20 7 46 17 57 21 17 6 16 4 -4 -13 -13 -11 -53 -30 -88 -42 -85 -30
-137 -24 -192 21 -22 19 -41 38 -41 43 0 9 32 -15 55 -40z m1585 26 c0 -5 -4
-10 -10 -10 -5 0 -10 5 -10 10 0 6 5 10 10 10 6 0 10 -4 10 -10z m-1676 -46
c12 -5 13 -9 3 -19 -8 -9 -16 -10 -24 -3 -26 21 -12 35 21 22z m1639 -29 c-3
-9 -8 -14 -10 -11 -3 3 -2 9 2 15 9 16 15 13 8 -4z m-2821 -22 c-6 -10 -20
-27 -33 -38 -24 -21 -20 -10 14 38 21 30 35 31 19 0z m1266 -43 c22 0 23 2 11
17 -13 15 -12 15 6 6 11 -6 29 -21 40 -33 l20 -22 -45 7 c-54 9 -69 16 -95 46
l-20 23 29 -22 c16 -12 40 -22 54 -22z m-1264 8 c-4 -7 -22 -32 -41 -55 -18
-23 -42 -61 -52 -85 -11 -24 -20 -38 -20 -32 -2 25 33 90 72 136 42 48 54 59
41 36z m-431 -45 c7 -40 -3 -49 -24 -22 -13 17 -15 27 -7 36 16 20 25 16 31
-14z m170 -243 c38 -65 75 -97 143 -123 61 -24 80 -50 52 -71 -8 -6 -17 -18
-20 -27 -8 -21 -78 -20 -102 0 -9 8 -16 10 -16 5 0 -15 -62 51 -87 93 -36 62
-51 137 -45 234 l5 84 22 -75 c11 -41 33 -95 48 -120z m1554 174 c-3 -3 -12
-4 -19 -1 -8 3 -5 6 6 6 11 1 17 -2 13 -5z m-1735 -82 c-7 -2 -12 -13 -12 -25
0 -15 -3 -18 -11 -10 -14 14 7 57 24 46 8 -5 8 -8 -1 -11z m2808 -22 c0 -5 -4
-10 -9 -10 -6 0 -13 5 -16 10 -3 6 1 10 9 10 9 0 16 -4 16 -10z m1347 -157
c-3 -44 -8 -87 -13 -95 -5 -7 -10 -23 -12 -35 -3 -24 -61 -182 -92 -248 -10
-22 -21 -47 -24 -55 -3 -8 -4 0 -3 18 5 45 -9 27 -17 -23 -5 -29 -4 -36 3 -25
12 17 14 10 5 -15 -6 -13 -9 -14 -16 -3 -7 9 -8 7 -5 -8 2 -12 1 -28 -4 -35
-5 -9 -7 6 -4 36 4 47 3 49 -10 25 -8 -14 -14 -20 -15 -15 0 6 6 19 13 30 19
27 27 64 16 71 -5 3 -9 10 -9 16 0 6 7 5 17 -3 15 -12 16 -12 10 4 -4 11 -1
20 8 23 8 4 15 14 15 24 0 11 5 22 10 25 6 4 8 11 5 16 -4 5 2 6 11 2 14 -5
16 -3 11 11 -4 10 -1 19 8 23 10 3 14 13 10 27 -2 11 -2 15 1 8 8 -17 24 -5
24 19 0 11 7 31 16 44 12 18 13 25 4 25 -9 0 -11 14 -8 51 3 33 2 46 -4 37 -6
-8 -7 -2 -3 20 4 17 8 51 10 75 1 23 6 56 11 72 l8 30 14 -45 c9 -29 12 -73 9
-127z m-4160 45 c-3 -8 -6 -5 -6 6 -1 11 2 17 5 13 3 -3 4 -12 1 -19z m-40
-68 c-2 -51 -19 -74 -25 -33 -2 12 -10 27 -18 33 -20 17 -17 32 5 25 12 -3 21
0 25 10 10 27 15 16 13 -35z m3436 -177 c4 -32 15 -76 26 -98 23 -48 69 -110
79 -109 16 3 31 -9 25 -19 -3 -5 -1 -7 5 -4 14 10 43 -3 36 -15 -4 -6 2 -8 15
-3 17 5 20 3 14 -11 -5 -13 -2 -16 8 -12 8 3 23 -4 34 -14 16 -16 17 -18 2
-13 -23 9 -23 -14 1 -31 9 -7 34 -14 54 -14 36 0 37 -1 32 -29 -5 -25 -2 -30
24 -39 29 -10 30 -12 19 -41 -9 -24 -8 -34 1 -43 9 -9 12 -8 12 5 0 10 6 17
13 15 17 -3 67 45 67 66 0 28 20 17 21 -11 1 -16 3 -44 4 -64 3 -32 1 -36 -16
-32 -17 5 -19 2 -14 -26 3 -18 1 -31 -5 -31 -5 0 -10 -11 -10 -25 0 -14 -5
-25 -11 -25 -6 0 -8 9 -4 20 5 14 2 20 -10 20 -9 0 -15 6 -14 13 1 6 0 26 -1
42 l-2 30 -8 -34 c-6 -24 -4 -41 5 -55 20 -32 28 -66 16 -66 -6 0 -10 3 -10 8
4 26 -1 34 -16 22 -13 -11 -16 -8 -21 19 -5 26 -9 29 -21 19 -8 -6 -12 -20 -9
-30 2 -11 0 -18 -6 -16 -15 5 -92 -68 -84 -80 3 -5 -11 -4 -32 4 -41 15 -106
19 -98 6 3 -5 36 -17 73 -28 67 -18 67 -19 33 -25 -19 -3 -27 -7 -17 -8 26 -2
20 -15 -12 -27 -19 -8 -34 -8 -46 -1 -13 7 -16 6 -11 -2 5 -7 -5 -11 -29 -11
-20 0 -34 3 -32 8 3 4 -19 7 -49 8 -30 0 -53 0 -51 -1 1 -2 45 -15 97 -29 135
-39 127 -35 110 -46 -13 -8 -12 -10 3 -10 9 0 17 5 17 10 0 6 7 10 15 10 9 0
12 -6 8 -17 -10 -26 -36 -53 -50 -53 -7 0 -13 -4 -13 -10 0 -14 43 -13 58 2 6
6 15 8 19 4 4 -4 2 -11 -6 -15 -10 -7 -9 -9 3 -14 9 -4 15 -3 15 1 -3 19 2 23
17 11 13 -10 17 -10 26 2 8 12 9 12 5 -1 -2 -8 -12 -14 -21 -13 -11 0 -15 -4
-12 -13 3 -8 -1 -14 -9 -14 -8 0 -15 -4 -15 -10 0 -5 7 -10 15 -10 16 0 19
-17 9 -44 -3 -9 -10 -13 -15 -10 -5 3 -6 -2 -3 -10 3 -8 -3 -19 -14 -25 -14
-7 -18 -18 -15 -38 3 -19 2 -24 -5 -15 -7 11 -10 11 -15 -2 -4 -9 -4 -24 -1
-33 5 -15 4 -16 -5 -3 -9 13 -11 12 -11 -3 0 -11 -4 -15 -12 -11 -7 4 -8 3 -4
-4 8 -13 -18 -68 -35 -74 -8 -3 -9 -10 -2 -23 13 -25 5 -55 -8 -34 -7 11 -9
10 -9 -4 0 -10 -4 -16 -8 -13 -5 3 -9 0 -9 -7 0 -7 -3 -23 -7 -37 -6 -24 -6
-24 9 3 9 15 18 27 21 27 7 0 -27 -64 -38 -71 -5 -3 -9 -9 -8 -13 4 -14 -23
-66 -31 -60 -5 3 -9 4 -9 2 -2 -18 -49 -138 -50 -125 0 27 -20 10 -20 -18 0
-13 -5 -27 -12 -31 -7 -4 -8 -3 -4 4 4 7 3 12 -2 12 -6 0 -13 -15 -16 -33 -4
-22 -15 -38 -30 -45 -18 -8 -22 -16 -19 -35 3 -14 -1 -28 -7 -32 -9 -5 -10 -2
-6 13 4 11 2 23 -4 27 -6 4 -10 -4 -10 -20 0 -15 -4 -24 -10 -20 -6 4 -7 -1
-3 -10 3 -10 0 -21 -8 -26 -7 -4 -19 -23 -25 -41 -12 -35 -26 -39 -74 -23 -23
7 -23 6 5 -16 17 -12 32 -25 35 -27 3 -2 -4 -10 -15 -18 -24 -18 -64 -10 -83
17 -7 10 -17 19 -23 19 -15 0 -10 -19 10 -37 11 -9 17 -22 14 -29 -6 -17 -34
-19 -31 -3 5 23 -19 19 -31 -5 -13 -24 -14 -24 -63 -10 -50 15 -91 14 -53 -2
11 -4 34 -16 50 -27 l30 -19 -30 6 c-16 4 -25 3 -19 -1 7 -5 8 -16 4 -29 -7
-17 -15 -20 -42 -17 -33 4 -33 4 -12 -14 23 -21 16 -33 -31 -55 -19 -9 -22
-14 -13 -21 41 -28 -161 21 -260 65 -24 10 -41 14 -38 9 11 -17 91 -59 123
-64 18 -3 47 -12 64 -21 18 -9 38 -16 46 -16 7 0 13 -6 13 -13 0 -19 -21 -37
-42 -37 -10 0 -18 -3 -18 -7 0 -5 -11 -13 -25 -20 -14 -6 -25 -7 -25 -2 0 6
-14 7 -32 4 -23 -4 -39 -1 -53 10 -15 12 -16 15 -4 12 13 -4 18 2 21 24 3 16
3 29 2 29 -1 0 -10 -3 -19 -6 -13 -5 -14 -8 -3 -15 9 -6 4 -9 -15 -9 -16 0
-26 4 -23 9 9 14 -44 30 -94 28 -25 0 -37 -2 -27 -5 9 -2 17 -8 17 -13 0 -5 6
-9 13 -9 16 -1 88 -66 80 -74 -13 -13 -35 -6 -29 9 3 10 -1 15 -14 15 -10 0
-22 5 -25 11 -4 6 -13 8 -20 5 -8 -3 -25 4 -39 15 -23 18 -25 18 -34 2 -9 -15
-14 -15 -37 -5 -41 19 -42 14 -5 -19 l35 -31 -40 23 c-22 13 -49 28 -59 33
-11 6 -31 22 -44 36 -14 14 -19 17 -12 8 8 -11 8 -18 2 -18 -6 0 -16 17 -23
38 -6 20 -16 42 -21 49 -5 6 -5 12 0 15 6 1 12 22 16 45 3 23 10 50 15 60 12
23 40 84 86 192 20 46 45 95 55 109 11 14 20 29 20 33 0 5 29 57 65 115 36 58
88 149 115 202 28 53 81 149 118 213 37 63 87 150 112 193 25 43 66 112 93
152 26 41 47 77 47 81 0 7 72 126 80 133 4 3 57 105 117 226 61 122 122 239
135 260 14 22 27 46 30 54 12 28 99 131 107 126 4 -3 11 -31 14 -63z m-3413
39 c0 -13 -12 -22 -22 -16 -10 6 -1 24 13 24 5 0 9 -4 9 -8z m-30 -32 c0 -5
-4 -10 -10 -10 -5 0 -10 5 -10 10 0 6 5 10 10 10 6 0 10 -4 10 -10z m-24 -14
c19 -19 18 -42 -2 -50 -24 -9 -24 -9 -24 29 0 39 4 42 26 21z m3518 -79 c8
-26 12 -47 10 -47 -6 0 -19 35 -28 75 -11 45 2 25 18 -28z m-3449 -26 c-11
-10 -35 11 -35 31 l0 23 20 -25 c10 -14 17 -26 15 -29z m-25 -31 c6 -11 7 -20
2 -20 -6 0 -12 9 -15 20 -3 11 -3 20 -1 20 2 0 8 -9 14 -20z m-44 -67 c-10
-25 -26 -2 -19 26 5 20 7 21 15 7 5 -10 7 -24 4 -33z m60 -54 c10 -20 12 -35
6 -41 -6 -6 -12 -5 -17 3 -6 8 -4 10 5 4 8 -5 11 -3 8 6 -3 8 -13 13 -22 13
-9 -1 -16 2 -16 7 0 5 4 9 10 9 5 0 7 7 4 15 -11 27 5 16 22 -16z m3820 -5
c-9 -8 -21 -12 -28 -8 -8 5 -6 10 8 15 31 12 37 10 20 -7z m-65 -1 c-10 -4 -5
-10 15 -18 l29 -13 -36 2 c-24 1 -35 5 -32 13 3 8 -10 13 -39 16 -35 3 -32 4
17 4 33 1 54 -1 46 -4z m-3761 -53 c12 -7 12 -12 -4 -29 -15 -17 -16 -23 -6
-36 7 -9 8 -15 2 -15 -6 0 -12 6 -15 13 -3 8 -9 6 -19 -7 -9 -12 -21 -17 -32
-13 -9 4 -16 2 -16 -4 0 -6 -7 -3 -16 5 -17 17 -29 21 -20 8 7 -12 -13 -82
-23 -82 -8 0 -51 64 -51 74 0 2 12 7 26 10 20 5 24 11 19 29 -7 22 -7 22 9 2
15 -19 15 -19 16 9 0 21 4 27 15 23 8 -4 17 -2 20 3 4 6 17 7 30 4 12 -3 26
-1 29 5 9 13 16 14 36 1z m3987 -42 c-3 -8 -6 -5 -6 6 -1 11 2 17 5 13 3 -3 4
-12 1 -19z m-56 -8 c9 -56 9 -64 -1 -50 -9 12 -10 8 -6 -15 3 -16 2 -35 -2
-42 -4 -7 -9 7 -10 34 -1 25 -9 54 -17 64 -15 16 -14 17 9 15 14 0 26 -3 27
-6z m-101 -31 c-7 -11 -14 -19 -16 -16 -7 7 7 37 17 37 6 0 5 -9 -1 -21z
m-3740 -4 c0 -8 -2 -15 -4 -15 -2 0 -6 7 -10 15 -3 8 -1 15 4 15 6 0 10 -7 10
-15z m-40 -71 c0 -10 -5 -14 -16 -10 -8 3 -13 2 -10 -2 2 -4 1 -14 -4 -22 -8
-13 -12 -12 -24 5 -15 19 -15 19 -9 -4 5 -20 3 -22 -16 -16 -23 7 -28 -4 -9
-23 14 -14 -1 -16 -22 -2 -20 12 -20 59 0 65 8 2 27 3 41 0 16 -3 31 1 39 10
16 20 30 19 30 -1z m35 -5 c11 -17 -1 -21 -15 -4 -8 9 -8 15 -2 15 6 0 14 -5
17 -11z m-315 -79 c0 -5 -2 -10 -4 -10 -3 0 -8 5 -11 10 -3 6 -1 10 4 10 6 0
11 -4 11 -10z m340 -20 c0 -5 -2 -10 -4 -10 -3 0 -8 5 -11 10 -3 6 -1 10 4 10
6 0 11 -4 11 -10z m-40 -4 c0 -3 -4 -8 -10 -11 -5 -3 -10 -1 -10 4 0 6 5 11
10 11 6 0 10 -2 10 -4z m4427 -170 c11 -182 -82 -739 -134 -798 -8 -9 -12 -22
-8 -27 3 -6 -1 -11 -10 -11 -13 0 -14 4 -5 21 10 17 7 25 -19 50 l-30 29 5
-29 c5 -26 4 -28 -18 -24 -16 3 -33 -4 -53 -23 -25 -24 -27 -29 -12 -32 36 -7
15 -18 -33 -16 -57 2 -67 -12 -15 -22 33 -6 39 -14 38 -51 -1 -7 3 -13 8 -13
5 0 9 -5 9 -11 0 -9 -31 -10 -111 -6 -61 3 -109 3 -105 0 9 -9 119 -33 154
-33 30 0 32 -1 18 -16 -22 -22 -20 -44 4 -44 29 0 24 -13 -10 -28 -34 -16 -41
-37 -8 -29 23 7 58 -8 58 -24 0 -6 -9 -8 -19 -4 -11 3 -22 1 -26 -5 -3 -5 1
-10 9 -10 18 0 23 -64 6 -75 -5 -3 -10 -20 -10 -36 0 -16 -6 -32 -14 -35 -8
-3 -17 -21 -20 -39 -5 -25 -15 -37 -36 -47 -17 -7 -30 -20 -30 -29 0 -19 -21
-39 -59 -56 l-26 -11 29 -1 c24 -1 27 -3 16 -16 -7 -8 -19 -15 -27 -15 -8 0
-12 -4 -9 -9 3 -5 -1 -15 -10 -22 -11 -9 -17 -10 -22 -2 -5 7 -20 9 -42 4
l-35 -7 45 -16 45 -15 -40 -8 c-44 -9 -77 -41 -69 -67 6 -21 8 -21 -34 -9 -36
11 -39 9 -16 -13 14 -15 13 -17 -10 -26 -14 -5 -28 -20 -32 -35 -5 -21 -12
-25 -40 -25 -36 0 -47 -15 -16 -23 9 -3 -2 -5 -25 -6 -24 0 -43 -5 -43 -11 0
-11 -90 -2 -105 11 -5 5 -19 9 -32 9 -15 0 -23 6 -24 18 0 10 -3 12 -6 5 -8
-21 -26 -15 -20 7 3 11 1 23 -4 26 -5 3 -7 9 -4 14 3 4 -3 11 -13 15 -16 6
-16 8 3 21 17 13 18 16 5 24 -12 7 -10 11 8 17 13 5 23 12 23 16 -3 22 1 27
17 28 10 0 12 3 5 6 -18 7 -16 21 7 45 14 15 17 25 9 34 -7 9 -4 14 12 19 17
6 19 9 8 16 -10 6 -11 9 -1 9 6 0 12 6 12 14 0 8 6 17 13 19 7 3 5 6 -5 6 -22
1 -24 21 -3 21 8 0 15 9 15 19 0 10 7 21 15 25 10 4 14 14 11 31 -3 14 0 25 5
25 6 0 7 9 4 20 -4 12 -2 20 5 20 7 0 9 8 5 19 -3 12 0 21 10 24 8 4 12 13 9
22 -4 8 -1 15 6 15 7 0 10 7 7 15 -4 8 -2 17 4 21 6 3 8 12 5 20 -3 8 1 17 10
21 8 3 13 12 9 20 -4 12 0 14 15 10 14 -3 18 -1 13 6 -12 19 -9 67 4 67 19 0
25 18 13 42 -10 21 -10 21 9 -2 l21 -25 -9 32 c-7 24 -6 32 2 30 7 -1 12 7 12
18 0 17 6 20 40 17 22 -2 46 -9 53 -14 24 -20 24 1 0 27 -30 32 -32 98 -4 103
14 3 15 7 5 18 -9 11 -9 14 1 14 7 0 10 7 6 16 -4 9 -1 23 6 31 9 11 9 16 -2
23 -12 7 -10 13 8 33 12 13 22 28 22 33 0 6 13 28 30 51 29 39 31 40 104 46
40 4 84 11 98 16 16 6 36 5 60 -4 31 -10 38 -10 42 1 6 16 42 19 51 4 5 -8 12
-7 22 2 12 10 18 9 29 -7 14 -18 14 -18 29 1 14 18 18 40 16 74 0 8 6 2 13
-15 14 -29 14 -29 13 28 -1 35 2 56 8 53 6 -2 10 14 9 37 -1 23 -6 43 -12 45
-18 6 -2 31 18 27 12 -2 16 2 13 13 -2 9 5 35 17 57 11 21 20 46 19 55 0 11
-3 9 -10 -5 -7 -15 -8 -13 -2 10 9 42 10 88 2 100 -3 6 -6 17 -7 25 0 8 -3 51
-6 95 l-6 80 20 -44 c14 -30 23 -75 27 -135z m-4347 84 c0 -5 -10 -10 -22 -10
-19 0 -20 2 -8 10 19 13 30 13 30 0z m-12 -33 c13 4 14 3 4 -5 -8 -5 -13 -15
-12 -23 1 -8 2 -21 1 -29 -1 -13 -2 -13 -11 0 -8 12 -13 13 -30 2 -19 -12 -20
-11 -14 15 8 29 37 58 42 43 2 -5 11 -6 20 -3z m-91 -63 c-3 -3 -12 -4 -19 -1
-8 3 -5 6 6 6 11 1 17 -2 13 -5z m3 -24 c0 -5 -4 -10 -10 -10 -5 0 -10 5 -10
10 0 6 5 10 10 10 6 0 10 -4 10 -10z m105 -60 c16 -18 16 -20 2 -20 -10 0 -17
5 -17 10 0 6 -6 10 -14 10 -8 0 -18 5 -21 10 -12 19 32 10 50 -10z m-14 -36
l24 -26 -24 7 c-22 7 -23 5 -19 -19 3 -14 3 -26 0 -26 -12 0 -47 48 -50 68 -5
32 38 29 69 -4z m3559 1 c7 -8 8 -15 2 -15 -5 0 -15 7 -22 15 -7 8 -8 15 -2
15 5 0 15 -7 22 -15z m-3649 -62 c12 -14 12 -16 0 -8 -11 7 -13 0 -8 -34 4
-33 2 -41 -8 -37 -9 3 -12 -4 -11 -25 3 -35 -6 -37 -28 -6 -13 16 -16 17 -12
4 3 -10 2 -15 -3 -12 -19 11 -8 69 16 88 12 10 23 25 23 33 0 19 15 18 31 -3z
m219 -28 c0 -5 -5 -3 -10 5 -5 8 -10 20 -10 25 0 6 5 3 10 -5 5 -8 10 -19 10
-25z m-60 -59 c-9 -9 -15 12 -11 37 1 5 -3 6 -8 2 -7 -4 -7 -15 -1 -30 14 -37
3 -56 -29 -49 -36 9 -49 23 -32 33 7 5 11 13 7 19 -3 6 -1 14 5 18 8 4 9 3 5
-4 -14 -23 11 -12 34 15 l24 27 8 -29 c4 -17 3 -34 -2 -39z m83 -4 c2 7 3 -10
3 -39 -1 -33 2 -50 9 -46 5 3 4 0 -2 -8 -16 -16 -17 -33 -1 -23 7 5 8 3 4 -5
-6 -9 -12 -9 -25 3 -10 9 -20 15 -22 14 -2 -2 3 3 11 11 13 12 13 13 -2 8 -9
-3 -19 0 -21 7 -4 10 1 12 14 9 17 -5 19 -1 15 31 -3 21 -8 43 -13 50 -4 6 -1
4 9 -6 12 -13 18 -15 21 -6z m4116 -28 c2 -10 0 -16 -5 -11 -4 4 -16 0 -26
-10 -21 -19 -24 -3 -6 27 15 24 32 21 37 -6z m-4434 -24 c3 -5 8 -18 10 -27 2
-10 7 -26 11 -37 5 -14 3 -17 -7 -14 -8 2 -15 17 -17 31 -4 32 -22 37 -22 6 0
-11 -4 -18 -8 -15 -4 2 -6 -12 -4 -32 3 -33 2 -35 -11 -20 -8 10 -18 14 -22
10 -4 -4 -5 5 -1 21 3 15 9 39 12 55 11 52 12 54 33 42 11 -5 23 -15 26 -20z
m177 8 c15 4 19 2 14 -7 -4 -7 -15 -11 -24 -10 -34 3 -36 -2 -7 -16 l30 -13
-34 -1 c-29 -1 -32 -3 -21 -17 12 -13 10 -14 -14 -2 -16 7 -23 14 -17 16 9 3
8 8 -1 20 -11 13 -10 15 5 9 11 -4 17 -1 17 9 0 8 5 12 10 9 6 -3 10 0 11 7 0
9 2 9 5 2 3 -7 14 -9 26 -6z m176 -34 c-4 -3 -12 5 -18 18 -12 22 -12 22 6 6
10 -10 15 -20 12 -24z m-271 -16 c-3 -8 -6 -5 -6 6 -1 11 2 17 5 13 3 -3 4
-12 1 -19z m203 -22 c1 10 30 -26 30 -36 0 -10 -45 -7 -52 4 -4 6 -8 19 -8 30
0 15 3 16 15 6 8 -7 15 -9 15 -4z m-198 -25 c-1 -6 10 -16 24 -21 43 -17 21
-22 -24 -6 -50 18 -53 13 -9 -15 28 -18 29 -20 7 -14 -24 6 -24 5 -6 -9 25
-20 17 -28 -23 -20 -25 5 -29 9 -20 20 9 11 8 18 -2 31 -11 13 -12 17 -1 21 7
2 18 10 25 18 14 15 33 12 29 -5z m332 -13 c-5 -8 -1 -9 10 -5 9 4 15 3 11 -2
-3 -5 -2 -11 2 -14 5 -2 1 -2 -7 0 -8 2 -4 -5 10 -16 14 -11 21 -23 17 -27 -4
-4 -7 -2 -7 4 0 18 -19 14 -47 -8 -14 -11 -30 -17 -37 -13 -6 3 -7 2 -3 -2 12
-14 37 -15 38 -2 0 7 4 3 9 -8 l9 -20 0 20 c1 16 3 17 11 5 11 -18 9 -20 -34
-30 -25 -5 -35 -4 -33 4 1 6 -4 10 -11 8 -8 -1 -11 2 -8 7 4 5 -2 15 -11 21
-16 10 -16 11 4 7 12 -3 30 1 41 9 11 7 21 11 24 9 2 -3 3 14 1 36 -2 25 1 38
7 34 6 -4 7 -11 4 -17z m-474 -23 c7 -9 10 -18 7 -22 -8 -7 -37 15 -37 28 0
14 16 11 30 -6z m93 -59 c3 3 14 1 24 -6 15 -9 15 -10 -7 -4 -22 6 -23 5 -12
-9 8 -9 9 -18 4 -21 -6 -3 -17 5 -26 19 -20 30 -21 41 -3 26 8 -6 16 -8 20 -5z
m3560 -11 c-3 -9 -8 -14 -10 -11 -3 3 -2 9 2 15 9 16 15 13 8 -4z m-3336 -37
c-3 -8 -6 -5 -6 6 -1 11 2 17 5 13 3 -3 4 -12 1 -19z m73 -8 c-19 -12 -30 -12
-30 -1 0 10 31 20 40 14 2 -2 -2 -8 -10 -13z m37 -31 c0 -29 -2 -31 -34 -27
-18 2 -33 0 -33 -4 0 -8 31 -11 75 -9 l20 1 -20 -9 c-22 -10 -73 -3 -92 12
-15 11 -18 31 -3 22 6 -3 10 -1 10 5 0 7 7 10 15 6 8 -3 15 -1 15 5 0 6 7 8
16 5 8 -3 13 -2 9 3 -3 5 1 12 7 14 7 3 13 6 14 6 0 1 1 -13 1 -30z m202 24
c14 11 14 10 2 -5 -7 -10 -17 -15 -22 -12 -19 11 -8 -26 14 -47 l22 -22 -32
18 c-25 14 -31 24 -28 44 4 37 4 36 17 23 9 -9 15 -9 27 1z m21 -33 c0 -5 -7
-10 -16 -10 -8 0 -12 5 -9 10 3 6 10 10 16 10 5 0 9 -4 9 -10z m-60 -58 c-6
-2 -8 -9 -4 -15 3 -7 -1 -4 -10 6 -8 11 -12 26 -9 35 4 10 2 13 -6 8 -6 -4
-11 -15 -10 -24 4 -44 -2 -72 -15 -72 -15 0 -29 29 -24 51 2 7 14 25 28 39
l25 26 17 -26 c10 -14 13 -26 8 -28z m-245 -2 c-3 -5 -1 -11 5 -15 19 -12 11
-38 -10 -32 -11 3 -20 1 -20 -4 0 -5 9 -9 21 -9 11 0 18 -4 14 -10 -11 -17
-52 10 -52 35 0 15 4 22 13 18 9 -3 12 2 9 16 -2 14 1 18 11 14 7 -3 12 -9 9
-13z m376 -4 c-9 -10 -8 -15 4 -20 8 -3 15 -10 15 -16 0 -6 -4 -9 -8 -6 -4 2
-14 1 -22 -5 -11 -6 -8 -9 14 -9 24 0 27 -2 16 -15 -7 -8 -26 -15 -42 -15 -26
0 -28 2 -18 21 7 11 9 23 6 27 -4 3 4 16 16 29 23 25 38 32 19 9z m-185 -111
c8 -19 12 -35 9 -35 -7 0 -45 77 -45 92 1 16 15 -8 36 -57z m-50 43 c13 -20
15 -76 4 -83 -11 -7 -43 19 -34 28 3 3 6 19 6 36 1 32 11 40 24 19z m-197 -27
c36 -34 37 -37 12 -37 -11 0 -18 3 -15 7 2 4 -8 18 -23 33 -35 36 -13 33 26
-3z m265 13 c3 -8 2 -12 -4 -9 -6 3 -10 10 -10 16 0 14 7 11 14 -7z m-234 -4
c12 -8 11 -10 -7 -10 -13 0 -23 5 -23 10 0 13 11 13 30 0z m576 -5 c17 -16 14
-18 -10 -9 -9 3 -16 10 -16 15 0 13 9 11 26 -6z m2635 -22 c-12 -20 -14 -14
-5 12 4 9 9 14 11 11 3 -2 0 -13 -6 -23z m-2841 6 c0 -6 7 -9 15 -5 8 3 15 3
15 0 0 -8 -54 -27 -75 -26 -20 1 -20 1 0 -14 12 -9 21 -11 23 -4 4 11 22 4 22
-10 0 -4 -11 -7 -25 -5 -31 3 -32 -3 -3 -14 21 -8 21 -8 -5 -13 -32 -6 -72 12
-72 32 0 8 -4 20 -8 27 -4 6 -3 14 3 18 5 3 10 1 10 -5 0 -6 5 -8 12 -4 6 4 8
3 4 -4 -3 -6 -1 -14 5 -18 7 -4 9 -3 5 4 -3 6 -2 13 4 17 6 4 7 12 3 18 -3 7
4 3 17 -8 19 -16 22 -17 17 -3 -3 9 -3 19 0 22 10 10 33 7 33 -5z m180 -31 c0
-5 -4 -6 -10 -3 -5 3 -10 2 -10 -4 0 -5 3 -11 8 -14 4 -2 1 -2 -6 -1 -8 3 -11
-5 -7 -26 4 -23 2 -28 -9 -24 -10 4 -12 13 -6 34 5 18 4 32 -3 40 -9 8 -7 9 7
4 16 -6 18 -4 13 11 -6 15 -5 16 8 5 8 -7 15 -17 15 -22z m-625 -4 c13 -21 19
-24 26 -13 4 7 11 10 15 6 4 -4 -1 -14 -12 -23 -13 -11 -14 -14 -4 -11 12 4
15 -2 12 -27 -2 -20 -9 -33 -18 -33 -17 0 -18 9 -1 26 10 11 9 12 -2 6 -11 -6
-13 -2 -9 19 4 21 2 26 -9 22 -8 -4 -11 -1 -8 5 4 6 -1 19 -11 30 -9 10 -12
19 -7 19 6 0 18 -12 28 -26z m198 0 c2 -10 7 -27 12 -36 4 -10 8 -29 9 -42 1
-20 4 -22 16 -13 13 10 13 10 1 -5 -19 -25 -28 -22 -35 7 -4 15 -11 23 -17 19
-8 -4 -7 -10 2 -16 11 -8 11 -9 -1 -5 -8 2 -17 14 -18 26 -2 15 0 21 7 17 7
-5 11 7 11 35 0 43 6 49 13 13z m3461 1 c3 -8 1 -15 -4 -15 -6 0 -10 7 -10 15
0 8 2 15 4 15 2 0 6 -7 10 -15z m496 -30 c0 -5 -5 -3 -10 5 -5 8 -10 20 -10
25 0 6 5 3 10 -5 5 -8 10 -19 10 -25z m-4167 -39 c-3 -4 -9 -2 -14 5 -13 22
-11 31 5 17 8 -7 12 -17 9 -22z m653 22 c5 -7 3 -8 -6 -3 -10 6 -12 4 -7 -8 3
-10 2 -17 -2 -17 -5 0 -11 6 -14 14 -9 24 15 36 29 14z m3531 -10 c-3 -8 -6
-5 -6 6 -1 11 2 17 5 13 3 -3 4 -12 1 -19z m-4234 -12 c4 -10 1 -13 -9 -9 -7
3 -14 9 -14 14 0 14 17 10 23 -5z m402 -16 c-2 -11 -1 -20 3 -21 25 -2 45 -9
50 -15 4 -4 0 -5 -9 -2 -9 4 -22 2 -29 -2 -8 -5 -22 -4 -32 1 -22 12 -25 41
-3 32 9 -3 15 -2 14 3 -2 13 0 24 5 24 3 0 3 -9 1 -20z m421 1 c-11 -12 -14
-21 -7 -26 7 -4 8 -12 1 -24 -5 -10 -7 -21 -4 -24 3 -3 -6 -4 -20 -3 -14 0
-24 6 -22 11 1 6 12 8 22 6 18 -3 18 -2 0 18 -20 22 -20 22 0 15 10 -4 16 -3
11 1 -6 8 19 45 31 45 3 0 -3 -9 -12 -19z m-326 5 c0 -8 -48 -12 -66 -5 -13 5
-7 8 24 8 23 1 42 -1 42 -3z m132 -21 c2 3 4 -5 2 -18 -1 -12 -3 -26 -3 -30
-1 -5 -5 -6 -9 -3 -5 3 -8 -17 -7 -44 2 -38 0 -47 -11 -43 -17 6 -18 23 -1 24
10 0 10 2 0 6 -7 2 -13 9 -13 14 0 6 5 7 10 4 14 -9 12 1 -6 36 -14 28 -14 32
0 48 9 10 15 20 14 22 -2 2 2 -1 8 -8 6 -7 13 -11 16 -8z m-582 -20 c-13 -16
-6 -35 13 -35 7 0 6 4 -3 10 -13 9 -13 11 0 20 8 5 20 10 25 10 6 0 5 -4 -2
-8 -7 -4 -10 -21 -8 -41 3 -26 1 -32 -10 -27 -8 3 -15 1 -15 -4 0 -6 5 -10 10
-10 6 0 10 -5 10 -11 0 -16 -43 0 -62 24 -10 12 -22 27 -28 34 -17 20 9 27 31
7 21 -19 26 -11 7 11 -32 36 -38 45 -29 45 6 0 15 -8 20 -17 9 -17 12 -16 27
6 11 15 19 20 22 13 2 -7 -1 -19 -8 -27z m168 13 c-2 -7 3 -12 10 -10 8 1 12
-3 9 -10 -2 -7 -10 -12 -17 -10 -11 2 -11 0 -1 -11 12 -15 33 -77 26 -77 -2 0
-10 -3 -19 -6 -9 -3 -16 -1 -16 6 0 6 5 8 10 5 13 -8 13 5 0 25 -8 13 -11 13
-22 1 -11 -11 -11 -13 1 -6 11 6 13 4 8 -9 -4 -10 -7 -21 -7 -26 0 -4 -9 -6
-20 -3 -16 4 -18 9 -10 18 6 8 10 19 9 27 -1 7 -1 22 0 33 1 17 3 18 11 5 7
-11 10 -8 10 16 0 17 3 34 7 37 10 10 13 8 11 -5z m35 -49 c-8 -8 -13 -7 -18
2 -5 8 -4 10 3 5 7 -4 12 -2 12 5 0 7 3 9 7 6 4 -4 2 -12 -4 -18z m127 -4 c22
-11 29 -21 26 -38 -3 -18 -9 -21 -32 -19 -32 4 -43 16 -39 41 2 9 4 19 4 24 1
10 8 9 41 -8z m637 -55 c5 0 10 -11 11 -26 1 -15 -2 -23 -8 -19 -6 4 -8 10 -5
14 2 5 -8 20 -23 34 -35 33 -52 54 -52 64 0 4 16 -9 35 -29 18 -21 38 -38 42
-38z m3 38 c0 -12 -6 -9 -26 13 -19 22 -19 22 4 8 12 -8 22 -17 22 -21z m-430
12 c0 -5 -2 -10 -4 -10 -3 0 -8 5 -11 10 -3 6 -1 10 4 10 6 0 11 -4 11 -10z
m-20 -16 c11 -12 11 -15 0 -12 -21 5 -23 -19 -3 -39 10 -11 20 -27 21 -38 3
-16 2 -17 -12 -6 -9 7 -13 17 -11 22 3 4 -1 11 -8 16 -8 4 -16 18 -19 31 -4
12 -2 20 3 16 5 -3 9 2 9 10 0 20 4 20 20 0z m234 -3 c37 -1 39 -2 20 -16 -27
-20 -61 -18 -87 5 l-21 21 24 -5 c14 -2 43 -5 64 -5z m-76 -35 c-7 -8 -15 -12
-17 -11 -5 6 10 25 20 25 5 0 4 -6 -3 -14z m242 -7 c0 -6 -4 -7 -10 -4 -5 3
-10 11 -10 16 0 6 5 7 10 4 6 -3 10 -11 10 -16z m-169 -16 c4 -5 -10 -9 -32
-11 -21 -1 -39 2 -39 7 0 19 53 22 71 4z m-446 -5 c14 1 16 -1 6 -7 -11 -7
-11 -10 0 -15 8 -3 1 -4 -16 -1 -28 5 -29 4 -11 -9 18 -14 18 -15 -2 -13 -11
0 -18 5 -15 11 4 5 -1 7 -12 2 -15 -6 -16 -4 -5 10 12 13 11 17 -1 25 -10 7
-7 8 11 3 14 -4 34 -7 45 -6z m630 2 c-3 -5 -2 -10 2 -13 5 -2 3 -3 -3 -1 -7
1 -14 -8 -17 -22 -5 -28 1 -30 20 -6 12 15 12 13 1 -11 -9 -22 -14 -25 -24
-15 -6 7 -15 27 -19 44 -5 29 -4 32 19 32 14 0 23 -4 21 -8z m-435 -36 c6 -19
16 -34 21 -34 5 0 9 -4 9 -10 0 -19 -26 1 -38 30 -8 17 -18 30 -22 30 -11 0
17 -69 37 -92 14 -15 13 -17 -5 -15 -11 0 -18 5 -16 9 3 4 1 8 -4 8 -14 0 -33
51 -30 81 3 39 34 35 48 -7z m148 15 c-9 -6 -7 -9 9 -9 12 0 25 -5 28 -10 4
-6 -3 -8 -17 -6 -13 3 -26 5 -30 5 -4 1 -6 10 -5 20 1 12 6 17 15 14 11 -5 11
-7 0 -14z m-376 -39 c10 0 18 -4 18 -9 0 -15 -46 -6 -64 12 -23 23 -20 31 6
13 12 -9 30 -16 40 -16z m593 10 c-3 -5 -10 -10 -16 -10 -5 0 -9 5 -9 10 0 6
7 10 16 10 8 0 12 -4 9 -10z m-229 -15 c-4 -10 1 -15 14 -15 12 0 20 -7 20
-17 0 -11 -3 -14 -8 -7 -4 6 -17 15 -30 18 -19 6 -21 10 -11 22 15 18 23 18
15 -1z m444 5 c-12 -8 -12 -10 -1 -10 10 0 11 -3 2 -13 -6 -8 -8 -17 -4 -20 3
-4 2 -7 -4 -7 -5 0 -10 14 -10 30 0 21 5 30 16 30 14 0 14 -2 1 -10z m-222
-25 c-2 -6 -5 -9 -8 -8 -3 1 -4 -14 -2 -33 3 -20 8 -31 15 -27 6 3 7 1 3 -5
-9 -15 -34 -4 -39 16 -5 23 13 74 25 70 5 -2 8 -8 6 -13z m-578 -10 c7 -9 9
-19 5 -23 -4 -4 -10 -1 -12 5 -3 10 -10 10 -25 2 -18 -10 -18 -9 -8 10 13 25
23 26 40 6z m-89 -19 c11 -14 27 -23 37 -21 9 1 25 -8 35 -21 10 -13 13 -24 7
-24 -6 0 -9 -4 -6 -8 3 -5 -9 -9 -26 -10 -24 -1 -28 2 -18 8 13 8 12 10 -2 10
-9 0 -19 -6 -21 -12 -4 -10 -6 -10 -6 -1 -1 6 4 15 9 18 7 4 3 16 -8 33 -28
40 -34 52 -27 52 4 0 16 -11 26 -24z m234 4 c-3 -4 -1 -10 4 -12 12 -4 24 -48
14 -48 -5 0 -14 15 -21 33 -15 41 -15 50 -2 42 6 -4 8 -10 5 -15z m185 -21 c0
-5 -6 -9 -13 -9 -7 0 -13 9 -13 19 0 15 3 17 13 9 7 -6 13 -14 13 -19z m427 5
c0 -7 -8 -15 -18 -17 -12 -3 -17 1 -16 12 1 19 34 23 34 5z m-387 -33 c0 -13
-2 -13 -9 -2 -5 7 -14 11 -20 7 -7 -4 -9 -1 -5 8 7 19 34 9 34 -13z m573 -14
c-4 -7 1 -8 13 -3 15 6 17 5 7 -5 -19 -19 -15 -33 5 -18 15 13 16 12 4 -3 -8
-9 -11 -22 -7 -28 3 -5 2 -10 -4 -10 -10 0 -25 34 -26 61 0 9 -7 24 -15 35
-14 19 -14 19 7 0 13 -10 20 -23 16 -29z m-803 -21 c0 -12 -5 -7 -19 24 -11
24 -11 24 3 6 9 -11 16 -24 16 -30z m184 25 c4 -5 -3 -7 -14 -4 -23 6 -26 13
-6 13 8 0 17 -4 20 -9z m-189 -93 c2 -9 9 -26 15 -37 6 -12 9 -21 7 -21 -7 0
-39 51 -41 66 -1 7 -5 16 -9 20 -3 4 -5 -3 -2 -14 2 -12 0 -24 -6 -27 -5 -4
-2 -17 7 -31 20 -29 2 -34 -29 -6 -22 19 -16 1 11 -30 13 -16 10 -38 -7 -38
-4 0 -18 18 -30 41 -22 39 -22 41 -4 45 32 9 44 37 28 68 -13 25 -13 26 6 16
10 -6 19 -7 18 -3 -1 4 -1 17 0 28 2 19 25 -32 36 -77z m645 80 l-25 -11 25
-8 c17 -5 10 -6 -21 -3 -32 4 -49 2 -54 -7 -6 -9 -3 -11 11 -6 18 7 18 7 0 -8
-11 -8 -25 -15 -30 -15 -6 0 -5 4 2 9 8 4 13 11 13 15 -5 34 0 37 79 43 l25 2
-25 -11z m1940 -9 c0 -14 -5 -19 -17 -17 -26 5 -29 38 -4 38 15 0 21 -6 21
-21z m-2533 -3 c-4 -10 1 -12 16 -9 22 4 22 4 3 -11 -16 -13 -22 -13 -28 -3
-11 18 -10 37 3 37 6 0 9 -6 6 -14z m329 -3 c13 -17 14 -17 7 2 -3 11 -3 17 1
14 4 -4 9 -22 11 -39 4 -30 3 -31 -9 -14 -8 10 -18 15 -22 11 -5 -4 -2 -12 5
-16 8 -5 9 -11 3 -15 -6 -3 -15 8 -21 24 -6 20 -7 30 0 30 6 0 7 5 4 10 -11
17 7 11 21 -7z m-195 -21 c-11 -4 -11 -6 0 -14 11 -7 9 -8 -5 -4 -10 4 -28 4
-39 0 -20 -6 -20 -7 3 -19 l23 -12 -25 0 c-14 0 -25 5 -24 11 3 22 18 36 37
36 10 0 19 5 19 11 0 5 5 7 12 3 9 -6 9 -9 -1 -12z m687 -7 c-3 -3 -9 2 -12
12 -6 14 -5 15 5 6 7 -7 10 -15 7 -18z m1662 15 c0 -5 -5 -10 -11 -10 -5 0 -7
5 -4 10 3 6 8 10 11 10 2 0 4 -4 4 -10z m-2190 -35 c0 -8 -4 -15 -10 -15 -5 0
-7 7 -4 15 4 8 8 15 10 15 2 0 4 -7 4 -15z m185 5 c3 -5 1 -10 -4 -10 -6 0
-11 5 -11 10 0 6 2 10 4 10 3 0 8 -4 11 -10z m250 -10 c-3 -5 -2 -18 3 -27 5
-10 6 -27 2 -38 -7 -19 -7 -18 -20 5 -9 17 -10 25 -2 28 9 3 9 9 2 23 -9 15
-7 19 5 19 9 0 13 -4 10 -10z m-365 -54 c0 -5 -7 -1 -15 10 -8 10 -14 24 -14
29 0 6 6 1 14 -9 8 -11 15 -24 15 -30z m135 34 c3 -5 -1 -10 -9 -10 -9 0 -16
5 -16 10 0 6 4 10 9 10 6 0 13 -4 16 -10z m411 -5 c-3 -23 -22 -39 -30 -26 -4
6 0 11 8 11 9 0 15 3 15 8 -2 11 1 22 5 22 2 0 3 -7 2 -15z m-620 -11 c-4 -10
1 -22 11 -31 10 -8 12 -12 6 -8 -7 3 -13 1 -13 -4 0 -6 7 -11 16 -11 14 0 14
-2 -1 -16 -12 -12 -13 -19 -5 -24 8 -5 9 -10 2 -14 -14 -8 -25 11 -18 30 3 8
2 13 -3 10 -11 -7 -22 19 -16 39 3 8 7 22 10 30 2 8 7 15 11 15 3 0 3 -7 0
-16z m-210 -16 c-1 -14 4 -22 12 -20 8 1 11 -2 7 -7 -9 -15 -35 -1 -35 18 0
13 -2 14 -9 2 -8 -12 -12 -11 -27 4 -17 17 -17 17 1 12 11 -4 27 -2 35 3 8 5
15 10 16 10 0 0 0 -10 0 -22z m419 -8 c-3 -5 -12 -10 -20 -10 -8 0 -17 5 -20
10 -4 6 5 10 20 10 15 0 24 -4 20 -10z m52 -6 c-3 -3 -12 -4 -19 -1 -8 3 -5 6
6 6 11 1 17 -2 13 -5z m316 -9 c-3 -9 -8 -14 -10 -11 -3 3 -2 9 2 15 9 16 15
13 8 -4z m-803 -28 c0 -6 -3 -7 -7 -4 -3 4 -12 -1 -19 -11 -8 -9 -14 -12 -14
-5 0 6 5 15 10 18 6 4 8 11 5 16 -3 5 1 6 9 3 9 -3 16 -11 16 -17z m1050 -31
c0 -6 -9 0 -20 14 -26 33 -25 52 0 21 11 -13 20 -28 20 -35z m-442 18 c0 -15
-4 -22 -10 -16 -5 5 -6 16 -2 25 9 23 12 21 12 -9z m289 20 c-3 -3 -12 -4 -19
-1 -8 3 -5 6 6 6 11 1 17 -2 13 -5z m-537 -14 c0 -5 -5 -10 -11 -10 -5 0 -7 5
-4 10 3 6 8 10 11 10 2 0 4 -4 4 -10z m44 -2 c-3 -4 -12 -8 -20 -8 -8 0 -14 4
-14 8 0 4 9 8 19 8 11 0 17 -4 15 -8z m-400 -14 c23 -9 20 -34 -4 -34 -13 0
-20 7 -20 20 0 22 1 23 24 14z m201 -4 c-3 -5 -12 -10 -18 -10 -7 0 -6 4 3 10
19 12 23 12 15 0z m565 0 c0 -5 -2 -10 -4 -10 -3 0 -8 5 -11 10 -3 6 -1 10 4
10 6 0 11 -4 11 -10z m251 3 c0 -5 2 -18 3 -30 2 -13 -2 -23 -8 -23 -6 0 -11
14 -11 30 0 17 3 30 8 30 4 0 7 -3 8 -7z m-825 -26 c6 2 14 -4 18 -13 4 -12 2
-15 -9 -10 -12 4 -13 2 -2 -14 6 -11 15 -20 19 -20 5 0 8 -4 8 -10 0 -15 -45
-5 -46 11 0 8 -8 30 -18 49 -18 34 -18 35 0 19 11 -9 24 -15 30 -12z m244 7
c0 -2 -18 -3 -40 -2 -23 1 -36 4 -30 8 10 6 70 1 70 -6z m420 2 c0 -9 -40 -13
-46 -5 -3 5 6 9 20 9 14 0 26 -2 26 -4z m-521 -27 c-10 -6 -5 -11 14 -18 16
-6 33 -11 38 -11 5 0 9 -5 9 -10 0 -6 -17 -10 -37 -9 -35 2 -38 5 -38 35 0 23
3 30 13 26 11 -4 11 -6 1 -13z m436 12 c-3 -5 3 -12 12 -14 14 -4 13 -5 -4 -6
-23 -1 -30 9 -16 22 9 10 15 8 8 -2z m290 -9 c-3 -3 -11 0 -18 7 -9 10 -8 11
6 5 10 -3 15 -9 12 -12z m-1080 -19 c-27 -15 -34 -26 -10 -17 18 7 20 -7 3
-24 -10 -10 -10 -15 2 -22 8 -5 11 -12 7 -16 -4 -4 -13 -2 -19 4 -7 7 -20 12
-30 12 -10 0 -18 5 -18 11 0 5 4 8 9 5 5 -4 8 9 7 28 -3 34 -3 35 36 33 38 -1
38 -1 13 -14z m605 -64 c0 -6 -5 -7 -11 -3 -8 4 -9 -1 -5 -17 6 -19 5 -20 -3
-8 -6 9 -9 26 -6 38 2 11 1 21 -3 21 -4 0 -8 10 -9 22 -2 18 1 16 17 -10 11
-18 20 -37 20 -43z m374 19 c-3 -4 0 -24 5 -45 8 -27 7 -33 -1 -25 -7 7 -13
33 -15 59 -3 33 -1 44 6 33 5 -8 7 -18 5 -22z m26 8 c-5 -13 -6 -28 -2 -32 4
-5 1 -4 -5 1 -13 11 -7 55 8 55 5 0 4 -11 -1 -24z m-824 2 c5 4 6 3 2 -2 -5
-5 1 -15 12 -23 11 -8 20 -19 20 -25 0 -7 -7 -3 -16 8 -15 18 -15 18 -9 -3 9
-32 -10 -28 -35 7 -22 31 -19 60 4 41 7 -6 17 -7 22 -3z m167 -11 c9 -3 17
-12 16 -19 0 -9 -2 -10 -5 -1 -3 7 -12 9 -20 6 -8 -3 -14 0 -14 7 0 6 -4 8
-10 5 -5 -3 -10 -2 -10 3 0 14 13 23 19 14 3 -5 14 -11 24 -15z m853 7 c-3 -9
-6 -18 -6 -20 0 -2 -5 -4 -11 -4 -8 0 -9 4 0 13 6 8 8 17 4 20 -3 4 -1 7 6 7
8 0 11 -6 7 -16z m-1016 -111 c0 -23 -25 -19 -42 6 -24 35 -23 48 2 26 11 -10
17 -22 13 -28 -3 -6 -1 -7 5 -3 8 5 5 17 -8 39 -11 18 -20 37 -20 42 1 14 50
-67 50 -82z m460 52 c0 -5 -5 -3 -10 5 -5 8 -10 20 -10 25 0 6 5 3 10 -5 5 -8
10 -19 10 -25z m99 23 c11 -10 13 -10 7 0 -4 6 -2 12 3 12 6 0 11 -9 11 -20 0
-11 -3 -20 -6 -20 -13 0 -44 21 -44 30 0 14 13 12 29 -2z m656 2 c3 -5 2 -10
-4 -10 -5 0 -13 5 -16 10 -3 6 -2 10 4 10 5 0 13 -4 16 -10z m-230 -10 c-3 -5
-10 -10 -16 -10 -5 0 -9 5 -9 10 0 6 7 10 16 10 8 0 12 -4 9 -10z m790 0 c3
-5 2 -10 -4 -10 -5 0 -13 5 -16 10 -3 6 -2 10 4 10 5 0 13 -4 16 -10z m-1625
-25 c9 5 25 -13 18 -20 -9 -9 -76 16 -82 30 -5 13 -2 13 25 0 16 -9 34 -13 39
-10z m220 -9 c0 -8 5 -16 12 -18 8 -3 9 -6 1 -11 -5 -3 -15 5 -21 18 -7 15 -8
25 -2 25 6 0 10 -6 10 -14z m640 5 c0 -9 -41 -23 -49 -16 -3 4 28 20 47 24 1
1 2 -3 2 -8z m225 1 c-3 -3 0 -11 6 -19 6 -7 7 -13 3 -13 -5 0 -14 8 -21 18
-9 15 -8 19 3 19 8 0 12 -3 9 -5z m-1035 -6 c0 -3 -4 -8 -10 -11 -5 -3 -10 -1
-10 4 0 6 5 11 10 11 6 0 10 -2 10 -4z m2870 -6 c0 -5 -5 -10 -11 -10 -5 0 -7
5 -4 10 3 6 8 10 11 10 2 0 4 -4 4 -10z m-2545 -20 c3 -5 1 -10 -4 -10 -6 0
-11 5 -11 10 0 6 2 10 4 10 3 0 8 -4 11 -10z m670 -6 c1 -5 6 -20 13 -34 12
-22 11 -23 -1 -7 -8 9 -17 17 -20 17 -4 0 -4 -8 -1 -17 5 -16 4 -16 -6 -3 -10
13 -11 12 -7 -6 2 -12 -1 -21 -8 -21 -15 0 -14 28 2 45 7 7 9 20 6 29 -4 11
-2 14 8 11 8 -3 14 -9 14 -14z m-433 -3 c8 11 9 10 4 -3 -3 -10 -2 -18 2 -18
4 0 8 -10 9 -22 2 -20 0 -19 -17 7 -11 17 -20 35 -19 40 0 6 3 4 6 -4 5 -11 7
-11 15 0z m-398 -76 c2 -31 0 -44 -8 -42 -6 3 -10 10 -8 16 1 6 -1 11 -6 11
-4 0 -5 21 -3 47 4 57 19 38 25 -32z m-424 55 c0 -5 -2 -10 -4 -10 -3 0 -8 5
-11 10 -3 6 -1 10 4 10 6 0 11 -4 11 -10z m590 -16 c0 -2 -9 0 -20 6 -11 6
-20 13 -20 16 0 2 9 0 20 -6 11 -6 20 -13 20 -16z m-393 10 c-3 -3 -12 -4 -19
-1 -8 3 -5 6 6 6 11 1 17 -2 13 -5z m-172 -21 c-1 -10 -10 -17 -19 -17 -13 2
-14 -1 -5 -12 6 -7 8 -18 4 -24 -4 -7 5 -25 21 -41 36 -38 21 -37 -23 1 -18
17 -38 30 -43 30 -16 0 -33 41 -21 51 6 5 9 7 7 3 -6 -8 31 -44 44 -44 6 0 3
12 -7 27 l-17 26 27 -7 c15 -3 27 -3 26 1 -2 12 1 23 5 23 2 0 3 -8 1 -17z
m119 -23 c-6 -6 -15 -5 -24 1 -13 9 -12 10 3 5 9 -3 17 0 17 6 0 6 3 8 7 5 4
-4 2 -12 -3 -17z m899 7 c3 2 8 0 11 -5 5 -8 -17 -9 -61 -4 -7 1 -13 6 -13 11
0 6 12 6 29 1 16 -4 32 -6 34 -3z m377 9 c0 -11 -19 -15 -25 -6 -3 5 1 10 9
10 9 0 16 -2 16 -4z m210 -28 c0 -6 -7 -5 -15 2 -8 7 -15 17 -15 22 0 6 7 5
15 -2 8 -7 15 -17 15 -22z m-1070 6 c0 -8 -4 -12 -10 -9 -5 3 -10 10 -10 16 0
5 5 9 10 9 6 0 10 -7 10 -16z m234 -11 c18 -21 18 -22 -2 -20 -13 1 -19 8 -19
24 0 13 0 23 1 21 1 -2 10 -13 20 -25z m-444 -5 c0 -7 12 -25 28 -42 15 -17
19 -24 10 -17 -9 7 -21 10 -27 7 -5 -3 -14 8 -20 26 -13 38 -13 38 -1 38 6 0
10 -5 10 -12z m-235 -9 c11 -16 1 -19 -13 -3 -7 8 -8 14 -3 14 5 0 13 -5 16
-11z m-167 -36 c7 -7 10 -13 5 -13 -4 0 -2 -4 6 -9 13 -8 13 -12 0 -27 -9 -11
-9 -15 -1 -10 6 4 12 3 12 -3 0 -30 -61 -16 -80 19 -13 25 -10 30 19 33 18 1
19 3 6 17 -35 39 -9 33 33 -7z m1234 -3 c4 -32 20 -52 30 -37 4 7 6 2 5 -10
l-1 -23 -23 22 c-13 12 -21 28 -19 35 3 7 2 13 -2 13 -4 0 -8 9 -8 20 0 27 15
11 18 -20z m28 30 c0 -5 -5 -10 -11 -10 -5 0 -7 5 -4 10 3 6 8 10 11 10 2 0 4
-4 4 -10z m430 -10 c0 -5 -5 -10 -11 -10 -5 0 -7 5 -4 10 3 6 8 10 11 10 2 0
4 -4 4 -10z m-1535 -11 c4 -6 12 -8 19 -6 12 5 38 -18 30 -26 -6 -6 -61 21
-69 34 -4 5 -2 9 4 9 5 0 13 -5 16 -11z m365 -4 c11 -13 10 -14 -4 -9 -9 3
-16 10 -16 15 0 13 6 11 20 -6z m905 5 c-3 -5 -12 -10 -18 -10 -7 0 -6 4 3 10
19 12 23 12 15 0z m1315 -10 c9 0 25 -7 36 -15 18 -15 17 -16 -16 -9 -40 7
-73 27 -63 38 4 3 11 2 17 -4 5 -5 17 -10 26 -10z m-1740 -10 c0 -5 -4 -10
-10 -10 -5 0 -10 5 -10 10 0 6 5 10 10 10 6 0 10 -4 10 -10z m-403 -13 c0 -9
-9 -12 -26 -10 -25 4 -25 4 -7 -11 21 -17 18 -20 -8 -10 -26 10 -18 32 12 37
15 2 27 5 28 6 0 0 1 -5 1 -12z m456 6 c-7 -2 -21 -2 -30 0 -10 3 -4 5 12 5
17 0 24 -2 18 -5z m404 1 c-3 -3 -12 -4 -19 -1 -8 3 -5 6 6 6 11 1 17 -2 13
-5z m-1035 -11 c-6 -2 -10 -9 -7 -13 3 -5 12 -7 20 -3 8 3 15 0 15 -6 0 -15
-23 -14 -38 1 -17 17 -15 28 6 27 10 0 12 -3 4 -6z m378 -14 c0 -6 -4 -7 -10
-4 -5 3 -10 11 -10 16 0 6 5 7 10 4 6 -3 10 -11 10 -16z m620 17 c0 -2 -7 -6
-15 -10 -8 -3 -15 -1 -15 4 0 6 7 10 15 10 8 0 15 -2 15 -4z m1438 -13 c-10
-2 -28 -2 -40 0 -13 2 -5 4 17 4 22 1 32 -1 23 -4z m-3144 -9 c16 -6 23 -34 8
-34 -10 0 -32 22 -32 32 0 10 3 10 24 2z m660 -10 c22 -22 20 -25 -9 -12 -14
6 -25 15 -25 20 0 13 17 9 34 -8z m636 10 c0 -8 -19 -13 -24 -6 -3 5 1 9 9 9
8 0 15 -2 15 -3z m-222 -39 c-3 -3 -9 2 -12 12 -6 14 -5 15 5 6 7 -7 10 -15 7
-18z m52 13 c0 -4 -6 -8 -14 -8 -8 0 -17 4 -20 8 -2 4 4 8 15 8 10 0 19 -4 19
-8z m-885 -18 c18 -11 36 -27 39 -35 7 -18 -5 -19 -23 -2 -11 10 -13 7 -8 -18
3 -20 0 -33 -11 -41 -16 -11 -15 -14 0 -31 16 -18 15 -18 -22 -15 -40 4 -80
32 -46 32 13 0 16 5 11 20 -5 14 -2 20 9 20 19 0 19 1 6 36 -11 27 -7 54 6 54
4 0 21 -9 39 -20z m380 -34 c-3 -12 -2 -15 1 -8 3 6 10 12 15 12 6 0 7 -5 3
-12 -4 -6 -3 -8 3 -5 6 4 17 0 24 -9 11 -13 9 -14 -17 -8 -24 5 -27 4 -16 -7
18 -19 15 -33 -3 -15 -26 26 -43 66 -37 88 5 20 6 20 19 3 7 -11 11 -28 8 -39z
m235 39 c0 -2 -9 -3 -19 -2 -11 0 -18 5 -15 9 4 6 34 0 34 -7z m447 9 c-3 -3
-12 -4 -19 -1 -8 3 -5 6 6 6 11 1 17 -2 13 -5z m-637 -36 c0 -6 -7 -5 -15 2
-8 7 -15 17 -15 22 0 6 7 5 15 -2 8 -7 15 -17 15 -22z m1450 17 c-7 -8 -17
-15 -23 -15 -6 0 -2 7 9 15 25 19 30 19 14 0z m-1300 -28 c9 -3 5 -6 -11 -6
-16 -1 -26 4 -26 14 0 9 4 11 11 6 6 -4 18 -11 26 -14z m34 14 c15 -6 16 -10
7 -16 -7 -4 -16 -3 -20 2 -3 6 -13 13 -21 16 -13 5 -13 5 0 6 8 0 24 -4 34 -8z
m626 -1 c0 -5 -2 -10 -4 -10 -3 0 -8 5 -11 10 -3 6 -1 10 4 10 6 0 11 -4 11
-10z m-235 -10 c3 -5 2 -10 -4 -10 -5 0 -13 5 -16 10 -3 6 -2 10 4 10 5 0 13
-4 16 -10z m425 -15 c-32 -19 -44 -19 -28 0 7 8 22 14 33 14 18 0 17 -1 -5
-14z m-599 -41 c18 6 20 5 9 -3 -25 -17 -47 -13 -64 14 -24 36 -19 44 7 11 19
-23 28 -27 48 -22z m146 0 c-3 -3 -12 -4 -19 -1 -8 3 -5 6 6 6 11 1 17 -2 13
-5z m12 -30 c12 -12 -48 -2 -65 11 -17 13 -15 13 21 4 22 -6 42 -13 44 -15z
m-489 6 c0 -5 -2 -10 -4 -10 -3 0 -8 5 -11 10 -3 6 -1 10 4 10 6 0 11 -4 11
-10z m687 -12 c-3 -8 -6 -5 -6 6 -1 11 2 17 5 13 3 -3 4 -12 1 -19z m1228 4
c-3 -3 -11 0 -18 7 -9 10 -8 11 6 5 10 -3 15 -9 12 -12z m-2091 -4 c-5 -8 -2
-9 10 -5 10 4 24 -1 35 -12 23 -23 17 -33 -15 -25 -35 9 -31 -23 7 -63 l30
-33 -50 0 c-32 0 -55 6 -65 16 -18 18 -21 34 -6 34 6 0 8 11 4 25 -6 26 4 33
23 14 7 -7 12 -4 16 10 3 12 1 24 -4 27 -11 6 -2 24 12 24 6 0 7 -5 3 -12z
m466 -8 c0 -5 -4 -10 -10 -10 -5 0 -10 5 -10 10 0 6 5 10 10 10 6 0 10 -4 10
-10z m125 -8 c-3 -3 -11 0 -18 7 -9 10 -8 11 6 5 10 -3 15 -9 12 -12z m283
-38 c-4 -3 -12 5 -18 18 -12 22 -12 22 6 6 10 -10 15 -20 12 -24z m-278 16 c8
-5 11 -10 5 -10 -5 0 -17 5 -25 10 -8 5 -10 10 -5 10 6 0 17 -5 25 -10z m-424
-19 c0 -16 -3 -17 -14 -9 -12 10 -7 19 13 28 1 0 1 -9 1 -19z m474 3 c0 -2 -7
-4 -15 -4 -8 0 -15 4 -15 10 0 5 7 7 15 4 8 -4 15 -8 15 -10z m830 12 c0 -9
-39 -13 -51 -5 -10 6 -4 9 19 9 17 0 32 -2 32 -4z m-900 -46 c0 -5 -5 -10 -11
-10 -5 0 -7 5 -4 10 3 6 8 10 11 10 2 0 4 -4 4 -10z m840 0 c-8 -5 -19 -10
-25 -10 -5 0 -3 5 5 10 8 5 20 10 25 10 6 0 3 -5 -5 -10z m-1330 -25 c11 -13
10 -14 -4 -9 -9 3 -16 10 -16 15 0 13 6 11 20 -6z m321 -2 c13 -16 12 -17 -3
-4 -17 13 -22 21 -14 21 2 0 10 -8 17 -17z m164 -3 c3 -5 2 -10 -4 -10 -5 0
-13 5 -16 10 -3 6 -2 10 4 10 5 0 13 -4 16 -10z m225 -30 c0 -5 -7 -7 -15 -4
-8 4 -12 10 -9 15 6 11 24 2 24 -11z m-640 -5 c7 -8 9 -15 4 -15 -5 0 -2 -5 6
-10 13 -8 13 -10 -1 -10 -9 0 -23 -10 -32 -22 -15 -23 -15 -23 -30 -3 -8 11
-13 23 -11 27 3 4 1 16 -5 25 -8 15 -4 18 24 20 19 2 38 -3 45 -12z m208 -13
c20 -30 11 -28 -17 4 -13 15 -17 24 -10 22 7 -2 19 -14 27 -26z m-378 8 c0 -5
-7 -10 -15 -10 -8 0 -15 5 -15 10 0 6 7 10 15 10 8 0 15 -4 15 -10z m553 -14
c4 -10 1 -13 -9 -9 -15 6 -19 23 -5 23 5 0 11 -7 14 -14z m441 -28 c-3 -4 -11
-5 -19 -1 -21 7 -19 12 4 10 11 0 18 -5 15 -9z m-1034 -8 c0 -5 -4 -10 -10
-10 -5 0 -10 5 -10 10 0 6 5 10 10 10 6 0 10 -4 10 -10z m957 -26 c-3 -3 -12
-4 -19 -1 -8 3 -5 6 6 6 11 1 17 -2 13 -5z m-177 -34 c0 -5 -10 -10 -22 -9
-22 0 -22 1 -3 9 11 5 21 9 23 9 1 1 2 -3 2 -9z m-233 -16 c30 -8 19 -24 -17
-24 -34 0 -60 9 -60 21 0 10 44 12 77 3z m229 -31 c-7 -7 -26 7 -26 19 0 6 6
6 15 -2 9 -7 13 -15 11 -17z m-281 -30 c18 -14 18 -15 2 -9 -10 3 -23 6 -28 6
-5 0 -9 5 -9 10 0 14 12 12 35 -7z m258 -4 c10 -11 17 -25 15 -30 -5 -14 -48
19 -48 37 0 20 13 18 33 -7z m1014 -15 c-3 -3 -12 -4 -19 -1 -8 3 -5 6 6 6 11
1 17 -2 13 -5z m-1067 -14 c0 -5 -2 -10 -4 -10 -3 0 -8 5 -11 10 -3 6 -1 10 4
10 6 0 11 -4 11 -10z m-23 -27 c29 -33 29 -53 1 -53 -22 1 -23 1 -4 15 11 8
15 15 9 15 -6 0 -18 11 -27 25 -22 33 -8 32 21 -2z"/>
<path d="M3375 7380 c-3 -5 -1 -10 4 -10 6 0 11 5 11 10 0 6 -2 10 -4 10 -3 0
-8 -4 -11 -10z"/>
<path d="M3508 6553 c7 -3 16 -2 19 1 4 3 -2 6 -13 5 -11 0 -14 -3 -6 -6z"/>
<path d="M3468 6543 c7 -3 16 -2 19 1 4 3 -2 6 -13 5 -11 0 -14 -3 -6 -6z"/>
<path d="M3757 6399 c-18 -10 -18 -11 -1 -24 16 -11 16 -15 5 -29 -10 -11 -10
-16 -2 -16 7 0 9 -4 6 -10 -3 -5 -25 -10 -48 -10 -61 0 -28 -17 49 -25 61 -7
151 1 140 13 -3 3 -2 10 3 16 5 6 11 22 13 36 2 20 -4 28 -32 42 -39 20 -105
23 -133 7z"/>
<path d="M4025 6300 c10 -11 20 -20 23 -20 3 0 -3 9 -13 20 -10 11 -20 20 -23
20 -3 0 3 -9 13 -20z"/>
<path d="M4066 6237 c3 -10 9 -15 12 -12 3 3 0 11 -7 18 -10 9 -11 8 -5 -6z"/>
<path d="M3923 6179 c-41 -12 -49 -25 -27 -46 13 -14 14 -18 3 -21 -8 -2 -21
-6 -29 -9 -8 -4 -18 -5 -22 -5 -5 1 -8 -2 -8 -7 0 -17 135 -37 145 -22 3 6 11
8 17 5 7 -4 8 -2 4 5 -4 6 -3 18 3 25 12 14 -4 76 -19 76 -5 0 -14 2 -22 4 -7
2 -27 0 -45 -5z"/>
<path d="M4087 6140 c-46 -29 -66 -51 -28 -31 10 6 22 7 26 3 5 -4 5 -1 1 6
-4 7 -2 12 7 12 8 0 22 9 32 20 25 27 17 25 -38 -10z"/>
<path d="M4180 6103 c0 -6 8 -17 18 -24 16 -13 16 -13 2 6 -8 11 -16 22 -17
24 -2 2 -3 0 -3 -6z"/>
<path d="M4070 6046 c-5 -15 -10 -39 -10 -53 0 -42 42 -185 52 -175 11 11 11
23 -1 141 -10 102 -24 131 -41 87z"/>
<path d="M4158 6043 c5 -21 7 -23 10 -9 2 10 0 22 -6 28 -6 6 -7 0 -4 -19z"/>
<path d="M4715 9070 c-3 -5 1 -10 10 -10 9 0 13 5 10 10 -3 6 -8 10 -10 10 -2
0 -7 -4 -10 -10z"/>
<path d="M4706 9038 c3 -5 9 -6 14 -3 5 3 20 0 32 -6 20 -11 68 -19 68 -12 0
1 -13 9 -30 18 -30 16 -93 18 -84 3z"/>
<path d="M4845 8839 c-4 -6 -5 -12 -2 -15 2 -3 7 2 10 11 7 17 1 20 -8 4z"/>
<path d="M4477 8719 c7 -7 15 -10 18 -7 3 3 -2 9 -12 12 -14 6 -15 5 -6 -5z"/>
<path d="M2703 6056 c17 -13 17 -15 -5 -37 -13 -12 -17 -18 -9 -14 8 4 17 2
21 -6 12 -19 3 -29 -28 -30 -18 -1 -11 -4 20 -10 43 -9 52 -7 115 27 87 45 92
51 57 59 -16 4 -42 11 -58 16 -16 5 -52 9 -80 9 -45 -1 -49 -2 -33 -14z"/>
<path d="M2456 5990 c7 -32 65 -153 70 -147 4 3 -18 53 -59 137 -12 25 -15 28
-11 10z"/>
<path d="M2513 5986 c9 -13 27 -67 42 -120 29 -105 45 -150 73 -196 l19 -30 1
50 c1 58 -28 149 -61 194 -13 17 -35 52 -50 79 -16 26 -30 47 -34 47 -3 0 2
-11 10 -24z m100 -184 c27 -67 19 -73 -9 -7 -36 86 -38 92 -22 70 8 -11 22
-39 31 -63z m24 -94 c-3 -8 -6 -5 -6 6 -1 11 2 17 5 13 3 -3 4 -12 1 -19z"/>
<path d="M2854 5861 c17 -6 17 -8 4 -14 -11 -4 -15 -13 -11 -26 5 -21 -6 -25
-54 -24 -7 1 -11 -3 -8 -7 10 -16 112 -22 169 -10 44 9 56 16 56 30 0 10 6 20
13 23 21 7 -94 37 -142 36 -32 0 -40 -3 -27 -8z"/>
<path d="M2908 5733 c-21 -5 -22 -13 -5 -36 15 -21 82 -44 150 -53 48 -7 51
-6 38 9 -10 12 -10 17 -2 17 19 0 -10 25 -57 49 -39 20 -84 25 -124 14z"/>
<path d="M2744 5658 c7 -57 40 -132 81 -187 37 -51 30 -25 -10 39 -41 63 -46
88 -9 45 l26 -30 -27 55 c-34 68 -23 59 22 -18 32 -56 36 -51 16 23 -10 34
-75 125 -91 125 -12 0 -13 -10 -8 -52z"/>
<path d="M2894 5643 c9 -18 20 -34 25 -38 6 -3 38 -40 72 -83 43 -53 50 -66
25 -42 -21 19 -47 50 -58 68 -11 18 -22 31 -25 28 -10 -9 59 -97 95 -121 36
-23 92 -43 92 -32 0 17 -24 56 -32 51 -5 -3 -8 -2 -7 3 4 22 -4 37 -43 79 -23
25 -58 54 -78 65 -19 10 -46 27 -59 36 l-24 17 17 -31z"/>
<path d="M2860 5465 c0 -5 5 -17 10 -25 5 -8 10 -10 10 -5 0 6 -5 17 -10 25
-5 8 -10 11 -10 5z"/>
<path d="M876 8335 c4 -8 8 -15 10 -15 2 0 4 7 4 15 0 8 -4 15 -10 15 -5 0 -7
-7 -4 -15z"/>
<path d="M3486 4461 c-36 -55 -66 -103 -66 -108 0 -4 11 9 26 30 14 21 29 35
34 32 4 -3 18 11 31 31 14 23 24 32 29 24 4 -6 10 10 13 37 3 26 4 49 2 51 -1
1 -32 -42 -69 -97z m12 -21 c-7 -10 -14 -17 -17 -15 -4 4 18 35 25 35 2 0 -1
-9 -8 -20z"/>
<path d="M3422 4508 c-66 -111 -93 -170 -97 -214 l-5 -49 20 25 c35 43 51 79
60 137 5 31 18 73 30 94 24 47 19 51 -8 7z m-61 -175 c-25 -47 -27 -29 -4 29
11 27 19 37 21 26 2 -9 -6 -34 -17 -55z"/>
<path d="M3247 4311 c-87 -135 -116 -198 -131 -283 -7 -43 -10 -78 -7 -78 4 0
20 39 35 88 33 103 56 156 63 148 3 -3 0 -20 -7 -38 -52 -142 -24 -101 35 52
26 69 55 140 62 158 26 60 8 43 -50 -47z"/>
<path d="M3670 4393 c-19 -2 -51 -6 -70 -9 -28 -5 -31 -7 -17 -15 14 -8 15
-13 4 -25 -16 -20 -37 -40 -62 -58 -19 -15 -18 -15 13 -16 37 0 102 27 102 42
0 5 5 6 12 2 7 -4 8 -3 4 4 -4 7 10 23 33 40 22 16 37 32 34 36 -3 3 -9 5 -12
4 -3 0 -22 -3 -41 -5z"/>
<path d="M3430 4093 c-50 -26 -60 -39 -33 -46 11 -3 6 -5 -12 -6 -36 -2 -62
-16 -46 -25 26 -17 98 -6 156 23 33 16 53 30 45 31 -13 0 -13 1 0 10 19 12 4
26 -35 32 -19 3 -46 -4 -75 -19z"/>
<path d="M3295 3890 c-37 -18 -37 -19 -10 -15 20 4 7 -6 -40 -29 l-70 -35 51
0 c28 -1 66 -6 83 -12 28 -10 35 -9 49 7 16 17 16 17 0 5 -32 -24 -44 -6 -14
20 60 51 75 67 69 73 -13 13 -80 5 -118 -14z"/>
<path d="M3179 3843 c-13 -15 -12 -15 9 -4 23 12 28 21 13 21 -5 0 -15 -7 -22
-17z"/>
<path d="M3141 3757 c25 -7 59 -23 76 -35 17 -12 35 -22 40 -22 24 0 -91 62
-123 66 -38 4 -38 4 7 -9z"/>
<path d="M3155 3701 c22 -10 54 -21 70 -25 28 -7 29 -6 10 7 -19 14 -89 37
-110 37 -5 -1 8 -9 30 -19z"/>
<path d="M3180 3666 c14 -8 39 -15 55 -14 29 0 29 0 -5 8 -19 4 -44 10 -55 14
-13 5 -11 2 5 -8z"/>
<path d="M2545 1880 c3 -5 8 -10 11 -10 2 0 4 5 4 10 0 6 -5 10 -11 10 -5 0
-7 -4 -4 -10z"/>
<path d="M2039 4073 c-35 -38 -87 -104 -104 -133 -14 -23 84 60 105 90 18 25
43 80 37 80 -2 0 -19 -17 -38 -37z"/>
<path d="M4402 3123 c-6 -20 -7 -32 -2 -27 10 10 25 64 18 64 -3 0 -10 -16
-16 -37z"/>
<path d="M4185 2680 c3 -5 8 -10 11 -10 2 0 4 5 4 10 0 6 -5 10 -11 10 -5 0
-7 -4 -4 -10z"/>
<path d="M3915 2470 c3 -5 13 -10 21 -10 8 0 12 5 9 10 -3 6 -13 10 -21 10 -8
0 -12 -4 -9 -10z"/>
<path d="M3880 2299 c0 -5 5 -7 10 -4 6 3 10 8 10 11 0 2 -4 4 -10 4 -5 0 -10
-5 -10 -11z"/>
<path d="M4011 2214 c0 -11 3 -14 6 -6 3 7 2 16 -1 19 -3 4 -6 -2 -5 -13z"/>
<path d="M3805 1779 c-4 -6 -5 -12 -2 -15 2 -3 7 2 10 11 7 17 1 20 -8 4z"/>
<path d="M3360 1326 c0 -2 7 -6 15 -10 8 -3 15 -1 15 4 0 6 -7 10 -15 10 -8 0
-15 -2 -15 -4z"/>
<path d="M2970 1040 c0 -5 5 -10 10 -10 6 0 10 5 10 10 0 6 -4 10 -10 10 -5 0
-10 -4 -10 -10z"/>
<path d="M2920 1029 c0 -5 5 -7 10 -4 6 3 10 8 10 11 0 2 -4 4 -10 4 -5 0 -10
-5 -10 -11z"/>
<path d="M2620 1006 c0 -2 7 -7 16 -10 8 -3 12 -2 9 4 -6 10 -25 14 -25 6z"/>
<path d="M2705 990 c3 -5 8 -10 11 -10 2 0 4 5 4 10 0 6 -5 10 -11 10 -5 0 -7
-4 -4 -10z"/>
<path d="M4125 1569 c-4 -6 -5 -12 -2 -15 2 -3 7 2 10 11 7 17 1 20 -8 4z"/>
<path d="M4237 1559 c7 -7 15 -10 18 -7 3 3 -2 9 -12 12 -14 6 -15 5 -6 -5z"/>
<path d="M440 2519 c0 -5 5 -7 10 -4 6 3 10 8 10 11 0 2 -4 4 -10 4 -5 0 -10
-5 -10 -11z"/>
<path d="M730 1681 c0 -6 4 -13 10 -16 6 -3 7 1 4 9 -7 18 -14 21 -14 7z"/>
<path d="M858 1638 c5 -5 16 -8 23 -6 8 3 3 7 -10 11 -17 4 -21 3 -13 -5z"/>
<path d="M790 1491 c0 -12 6 -21 15 -21 8 0 15 4 15 9 0 5 -7 14 -15 21 -13
10 -15 9 -15 -9z"/>
<path d="M720 1260 c8 -5 20 -10 25 -10 6 0 3 5 -5 10 -8 5 -19 10 -25 10 -5
0 -3 -5 5 -10z"/>
<path d="M118 7773 c-2 -32 0 -74 6 -93 l9 -35 10 35 c10 40 10 60 1 113 -9
55 -22 45 -26 -20z"/>
<path d="M144 7567 c-8 -21 2 -35 16 -21 5 5 6 15 0 24 -8 12 -10 12 -16 -3z"/>
<path d="M197 7264 c-8 -8 3 -34 14 -34 11 0 12 27 0 34 -4 3 -11 3 -14 0z"/>
<path d="M280 6872 c0 -12 30 -52 39 -52 17 0 20 30 5 45 -16 16 -44 21 -44 7z"/>
<path d="M160 3422 c0 -9 5 -24 10 -32 8 -13 11 -12 24 5 22 29 19 40 -9 43
-18 1 -25 -3 -25 -16z"/>
<path d="M47 2853 c-9 -8 -9 -46 -1 -67 10 -27 34 1 34 40 0 32 -16 45 -33 27z"/>
<path d="M51 2734 c0 -11 3 -14 6 -6 3 7 2 16 -1 19 -3 4 -6 -2 -5 -13z"/>
<path d="M238 2504 c3 -15 8 -22 14 -16 9 9 1 42 -12 42 -4 0 -5 -12 -2 -26z"/>
<path d="M86 2159 c-5 -55 -3 -75 9 -92 11 -15 15 -17 15 -6 0 8 -5 20 -12 27
-10 10 -5 11 21 6 30 -6 33 -5 24 10 -11 20 -5 66 8 66 21 0 7 31 -21 45 -16
8 -31 15 -33 15 -2 0 -7 -32 -11 -71z"/>
<path d="M75 2000 c3 -5 8 -10 11 -10 2 0 4 5 4 10 0 6 -5 10 -11 10 -5 0 -7
-4 -4 -10z"/>
<path d="M154 1995 c-8 -21 3 -45 20 -45 16 0 31 34 21 50 -9 15 -35 12 -41
-5z"/>
<path d="M550 2000 c0 -5 5 -10 11 -10 5 0 7 5 4 10 -3 6 -8 10 -11 10 -2 0
-4 -4 -4 -10z"/>
<path d="M122 1929 c1 -13 8 -23 13 -21 15 3 12 35 -3 40 -9 3 -13 -3 -10 -19z"/>
<path d="M103 1815 c-3 -9 -3 -18 0 -21 9 -9 27 6 27 22 0 19 -19 18 -27 -1z"/>
<path d="M70 1810 c-9 -6 -10 -10 -3 -10 6 0 15 5 18 10 8 12 4 12 -15 0z"/>
<path d="M200 1791 c0 -20 8 -34 25 -45 14 -9 25 -13 26 -9 0 5 2 17 4 28 4
22 -21 55 -42 55 -8 0 -13 -11 -13 -29z"/>
<path d="M225 1480 c3 -5 8 -10 11 -10 2 0 4 5 4 10 0 6 -5 10 -11 10 -5 0 -7
-4 -4 -10z"/>
<path d="M214 1435 c8 -8 17 -15 20 -15 3 0 6 7 6 15 0 9 -9 15 -21 15 -18 0
-19 -2 -5 -15z"/>
<path d="M237 1384 c-2 -13 0 -21 4 -18 5 3 20 -3 34 -12 34 -22 32 -8 -4 25
l-29 27 -5 -22z"/>
<path d="M310 1333 c0 -5 5 -15 10 -23 7 -12 9 -10 7 8 -1 19 -17 33 -17 15z"/>
<path d="M260 1261 c0 -5 7 -14 15 -21 8 -7 15 -27 15 -45 0 -23 5 -34 18 -37
27 -7 42 14 26 37 -10 13 -11 21 -3 25 6 4 1 13 -13 22 -32 20 -58 29 -58 19z"/>
<path d="M584 1094 c5 -13 1 -14 -26 -9 -27 6 -30 5 -24 -11 5 -11 9 -25 10
-33 2 -8 11 -18 22 -22 27 -11 36 -10 29 1 -3 6 -1 10 6 10 6 0 9 8 6 20 -3
10 0 21 7 23 8 3 7 9 -3 20 -17 21 -35 22 -27 1z"/>
<path d="M430 1045 c0 -8 7 -15 15 -15 8 0 15 7 15 15 0 8 -7 15 -15 15 -8 0
-15 -7 -15 -15z"/>
<path d="M400 995 c0 -9 11 -21 25 -27 14 -6 25 -19 25 -29 0 -10 5 -21 10
-24 6 -3 10 -19 10 -34 0 -16 10 -37 25 -51 24 -23 25 -23 25 -3 0 12 7 24 16
27 12 5 14 10 5 20 -6 7 -8 16 -4 20 18 18 8 36 -28 50 -21 9 -49 27 -61 41
-24 28 -48 33 -48 10z"/>
<path d="M530 989 c0 -8 9 -20 20 -27 11 -7 20 -8 20 -4 0 5 -9 17 -20 27 -15
14 -20 15 -20 4z"/>
<path d="M844 942 c3 -6 0 -14 -8 -19 -8 -4 -16 -21 -18 -38 -2 -18 -8 -29
-16 -27 -21 4 30 -57 60 -73 26 -12 27 -12 18 5 -13 24 -13 53 0 45 7 -4 9 3
6 19 -4 23 -3 25 16 15 11 -6 22 -8 26 -5 3 3 0 6 -6 6 -6 0 -9 6 -6 13 4 11
-22 36 -65 62 -9 5 -12 4 -7 -3z m20 -44 c10 -38 6 -45 -9 -18 -17 29 -18 40
-6 40 5 0 11 -10 15 -22z"/>
</g>
</svg>
